<?xml version="1.0" encoding="UTF-8" standalone="no"?>
<svg
   xmlns:dc="http://purl.org/dc/elements/1.1/"
   xmlns:cc="http://creativecommons.org/ns#"
   xmlns:rdf="http://www.w3.org/1999/02/22-rdf-syntax-ns#"
   xmlns:svg="http://www.w3.org/2000/svg"
   xmlns="http://www.w3.org/2000/svg"
   version="1.1"
   id="svg7412"
   viewBox="0 0 383.30245 356.72037"
   height="100.67442mm"
   width="108.17647mm">
  <defs
     id="defs7414" />
  <metadata
     id="metadata7417">
    <rdf:RDF>
      <cc:Work
         rdf:about="">
        <dc:format>image/svg+xml</dc:format>
        <dc:type
           rdf:resource="http://purl.org/dc/dcmitype/StillImage" />
        <dc:title></dc:title>
      </cc:Work>
    </rdf:RDF>
  </metadata>
  <g
     transform="translate(816.57046,-21.07039)"
     id="layer1">
    <g
       transform="translate(1342.8571,725.71429)"
       id="g7971">
      <path
         id="path7975"
         d="m -2138.1497,-352.56309 c -1.04,-7.58804 -0.645,-17.58833 0.8619,-21.81898 l 1.4099,-3.95856 -2.4661,2.95856 -2.4661,2.95855 0.6606,-3 c 1.5146,-6.8779 7.0353,-15.41485 17.8186,-27.55386 2.2249,-2.50463 4.7071,-5.54213 5.5161,-6.75 0.8089,-1.20788 2.0464,-2.19614 2.75,-2.19614 0.7035,0 1.2766,-0.5625 1.2734,-1.25 -0.01,-1.95341 9.1943,-9.78418 12.2509,-10.42369 2.9507,-0.61738 4.6941,-2.96715 9.7256,-13.10831 1.7142,-3.45511 3.4395,-6.08251 3.834,-5.83868 1.6928,1.04617 3.7053,-2.16165 3.8454,-6.12932 0.083,-2.3375 -0.015,-4.25 -0.2161,-4.25 -0.6642,0 -7.9235,3.48837 -8.434,4.05286 -0.275,0.30408 -2.1175,1.76658 -4.0944,3.25 -3.2103,2.40896 -4.4391,2.69339 -11.5,2.66201 -14.1994,-0.0631 -23.3391,-3.02941 -24.9475,-8.09675 -0.3461,-1.09049 -1.5238,-1.86812 -2.8291,-1.86812 -1.23,0 -4.5558,-1.15586 -7.3908,-2.56857 l -5.1544,-2.56857 -0.6765,-5.97979 c -0.6434,-5.68627 -0.8663,-6.07659 -4.5419,-7.95176 -4.3182,-2.20297 -4.7385,-3.90599 -2.3654,-9.58555 2.0476,-4.90049 1.8976,-8.61638 -0.4058,-10.05488 -1.0482,-0.65462 -2.4372,-2.80024 -3.0867,-4.76805 -1.0217,-3.09587 -0.908,-4.10117 0.8441,-7.46263 2.7822,-5.3378 3.4536,-9.76222 2.2756,-14.99653 -0.7703,-3.42301 -0.671,-5.13611 0.4349,-7.5 2.0683,-4.42142 11.0141,-16.29956 17.6879,-23.48601 6.0028,-6.46385 6.6685,-7.78798 4.3605,-8.67363 -0.7797,-0.2992 -1.1758,-1.35047 -0.9025,-2.3955 0.3465,-1.32492 -0.5475,-2.53265 -3.0981,-4.18542 -1.9718,-1.27771 -3.5907,-2.66061 -3.5975,-3.07311 -0.01,-0.4125 2.0126,-0.75 4.4876,-0.75 5.435,0 5.504,-0.41567 1.6022,-9.64529 -3.2584,-7.7074 -4.4621,-20.11845 -2.9927,-30.85471 3.058,-22.3433 7.4784,-35.36284 11.4845,-33.82557 0.7733,0.29675 1.406,0.0414 1.406,-0.56744 0,-0.60885 -0.4342,-1.10699 -0.9648,-1.10699 -4.5452,0 -1.4314,-14.07326 5.0599,-22.86895 2.2857,-3.09708 5.4265,-6.98105 6.9797,-8.63105 1.5531,-1.65 4.5084,-4.9505 6.5672,-7.33445 2.2761,-2.63553 6.5095,-5.73649 10.8007,-7.91149 5.9944,-3.03832 8.1115,-3.59038 14.0573,-3.66555 4.9986,-0.0632 7.523,-0.55973 8.8292,-1.73664 2.3153,-2.08608 7.3672,-2.85366 10.8321,-1.6458 1.9713,0.68722 3.5028,0.50187 5.8401,-0.70682 2.0532,-1.06174 5.5935,-1.63063 10.0597,-1.61652 4.8561,0.0154 7.3405,-0.42717 8.4116,-1.49826 1.1546,-1.15462 3.384,-1.45227 9.2737,-1.23813 4.2645,0.15505 8.5411,-0.0876 9.5036,-0.53921 1.1822,-0.5547 1.75,-0.40638 1.75,0.45714 0,0.70304 0.7118,2.06474 1.5817,3.02601 0.8699,0.96128 2.1569,5.27171 2.8599,9.57875 0.703,4.30703 1.5124,7.15597 1.7986,6.33097 2.3828,-6.86932 2.6607,-9.50229 1.2327,-11.68164 -1.8074,-2.7585 -1.8823,-4.31836 -0.2073,-4.31836 1.8353,0 8.2317,3.58111 8.2497,4.6187 0.033,1.88318 1.6995,3.3827 3.7937,3.4131 1.2051,0.0175 3.0822,0.70546 4.1715,1.52882 1.2235,0.9248 3.0083,1.27129 4.6693,0.90648 2.0784,-0.45649 4.1826,0.38468 9.2695,3.70558 3.6194,2.36287 6.5807,4.86564 6.5807,5.56172 0,0.69608 0.45,1.2656 1,1.2656 0.55,0 1,0.675 1,1.5 0,0.825 0.473,1.5 1.051,1.5 0.5781,0 1.7091,1.575 2.5134,3.5 1.1085,2.65291 2.0568,3.5 3.9183,3.5 1.8744,0 3.351,1.34223 6.2366,5.66894 6.0793,9.11559 6.9817,11.16291 7.1978,16.33106 0.081,1.925 0.5568,3.64157 1.0585,3.81461 0.5016,0.17303 0.6467,1.00595 0.3225,1.85092 -0.3242,0.84498 -0.1733,1.8284 0.3355,2.18539 1.545,1.08406 4.5244,14.45631 4.5792,20.55215 l 0.051,5.72808 4.1178,-0.63862 c 6.5557,-1.01669 7.3839,-1.42391 8.0157,-3.9411 0.8529,-3.39836 8.9213,-8.91886 17.2537,-11.8052 5.0359,-1.74444 10.0606,-4.66177 16.9856,-9.86175 13.9604,-10.48293 20.5986,-15.93985 17.3629,-14.2732 -1.2915,0.66523 -1.3092,0.53742 -0.1276,-0.91932 0.7549,-0.93058 2.3299,-1.69633 3.5,-1.70167 1.1702,-0.005 4.0237,-1.51727 6.3412,-3.35985 2.3175,-1.84259 6.255,-3.9217 8.75,-4.62026 2.495,-0.69855 4.5364,-1.69738 4.5364,-2.2196 0,-0.53873 1.406,-0.66652 3.25,-0.29538 6.247,1.25731 6.5245,1.44772 6.244,4.28457 -0.5315,5.37675 -1.6625,6.78563 -8.1449,10.14659 -3.5963,1.86464 -8.3908,4.9375 -10.6542,6.82858 -6.9951,5.84421 -12.624,9.36588 -18.9033,11.82672 -7.2647,2.84703 -12.7916,6.86828 -12.7916,9.30693 0,1.45271 -2.0044,2.24354 -10.72,4.22951 l -10.7199,2.4427 5.4699,3.08917 c 3.0085,1.69904 7.7861,5.17286 10.6169,7.7196 2.8308,2.54674 5.4183,4.63043 5.75,4.63043 0.3317,0 0.6031,-1.54844 0.6031,-3.44098 0,-1.89254 0.4483,-3.71808 0.9963,-4.05675 0.6383,-0.3945 0.5221,-1.58357 -0.3234,-3.30902 -2.0339,-4.15063 -1.1471,-5.85423 3.1195,-5.99273 2.0392,-0.0662 5.8536,-0.40678 8.4765,-0.75687 l 4.7689,-0.63653 -3.0189,-3.43836 c -3.3635,-3.83082 -3.6278,-4.90277 -1.6871,-6.84345 1.1091,-1.10912 2.1543,-1.0505 6.25,0.35049 8.529,2.91746 12.8223,5.51348 15.0896,9.1242 1.2088,1.925 2.8244,4.20969 3.5903,5.07709 1.4118,1.59903 4.6469,7.95268 6.8344,13.42291 l 1.1997,3 0.916,-4.27544 c 0.8353,-3.89903 0.6611,-4.60336 -1.9787,-8 -4.4367,-5.70876 -6.1699,-11.12125 -5.8248,-18.18977 0.3445,-7.05413 1.4769,-8.58062 8.5917,-11.58155 2.475,-1.04392 4.725,-2.19142 5,-2.55001 0.8364,-1.09066 6.4333,-1.94929 7.5057,-1.15146 2.5237,1.8776 6.4943,8.35349 6.4943,10.59187 0,1.9614 -1.4022,3.38049 -6.7356,6.81672 -3.7045,2.3868 -7.1604,4.64117 -7.6796,5.0097 -0.5323,0.37773 0.1603,2.1228 1.5873,4 3.7277,4.9035 5.6947,9.11038 6.9106,14.77997 1.1205,5.22489 1.7125,5.85481 3.6659,3.90132 0.8649,-0.86487 1.8047,-0.71884 3.8039,0.59109 2.5191,1.6506 2.6197,2.0297 1.9633,7.39865 -0.97,7.93287 -3.3702,17.97668 -5.0915,21.30531 -0.8001,1.54723 -3.4744,5.29274 -5.9429,8.32335 -2.4684,3.03061 -4.4139,5.85221 -4.3233,6.27022 0.3589,1.65489 -2.1707,6.19639 -3.9952,7.17285 -1.0631,0.56893 -2.2182,2.17129 -2.5669,3.5608 -0.3488,1.38951 -1.2287,2.52638 -1.9553,2.52638 -1.9158,0 -12.8412,5.60648 -15.1904,7.79507 -1.1009,1.02567 -3.3401,2.71261 -4.976,3.74875 -1.6359,1.03615 -4.7743,3.30576 -6.9743,5.04359 -7.7862,6.15047 -22.2482,14.41259 -25.2278,14.41259 -1.8588,0 -3.8065,0.94598 -5.3479,2.59732 -4.435,4.75152 -12.2467,7.87701 -27.4243,10.97261 -3.85,0.78524 -9.1375,1.42824 -11.75,1.42889 -5.2598,10e-4 -5.3928,0.21849 -3.2599,5.32316 0.8195,1.96142 1.2591,4.16802 0.9768,4.90355 -0.9094,2.37 12.2523,12.69182 14.4435,11.32702 0.3243,-0.20199 1.4659,-2.63244 2.5369,-5.40101 2.5421,-6.57142 5.4824,-7.55241 9.9478,-3.31898 5.1981,4.92794 9.2728,6.5028 14.5206,5.61217 6.7475,-1.14513 27.4988,-0.53411 27.982,0.82393 0.2188,0.61474 1.3438,2.06373 2.5,3.21998 2.3384,2.33838 2.6023,2.84657 2.6023,5.01136 0,3.19736 1.8023,1.27347 3.0446,-3.25 0.7475,-2.72188 2.7244,-6.23196 4.63,-8.22084 3.1021,-3.23781 3.3254,-3.92824 3.3254,-10.28325 0,-7.31042 2.6662,-14.33232 6.8919,-18.1509 1.6374,-1.47965 2.1081,-3.08385 2.1081,-7.1849 0,-2.90395 0.5136,-6.54671 1.1414,-8.09501 1.1823,-2.91579 1.378,-3.63977 2.4416,-9.03293 0.349,-1.76981 1.2606,-3.73741 2.0258,-4.37245 0.7651,-0.63503 1.3912,-1.59464 1.3912,-2.13245 0,-0.53781 2.0767,-3.07021 4.615,-5.62755 2.5382,-2.55735 5.7734,-6.22472 7.1893,-8.14972 4.1441,-5.63407 9.4879,-11.05576 12.4074,-12.58828 2.4596,-1.29112 2.8051,-1.24885 3.7168,0.45469 1.1626,2.17231 0.3953,5.27806 -3.1825,12.88174 -2.9492,6.26788 -2.6493,10.25185 0.7718,10.25185 1.554,0 2.9496,1.12701 4.3638,3.52384 1.1435,1.93811 2.8754,3.81779 3.8487,4.17706 2.01,0.74192 3.2319,2.24219 3.2544,3.99565 0.01,0.6581 -2.4597,2.83935 -5.4847,4.84723 -6.6971,4.44531 -7.3725,7.01126 -1.6026,6.08861 3.335,-0.53328 4.5906,-0.14559 8.6999,2.68625 7.39,5.09271 9.6706,10.57744 6.9865,16.8026 -0.521,1.20849 0.4467,2.29261 3.8011,4.25843 2.475,1.45046 8.3509,6.28239 13.0576,10.73762 l 8.5575,8.10043 0,7.98723 c 0,4.39298 0.714,10.4434 1.5867,13.44539 1.3299,4.5745 1.3901,6.27793 0.372,10.52184 -0.7098,2.95866 -2.206,5.92554 -3.5991,7.13688 -4.4875,3.9018 -8.3565,12.16598 -8.3923,17.92579 -0.063,10.15907 -1.6881,18.7506 -4.2714,22.58379 -1.3645,2.02475 -3.0418,5.48136 -3.7272,7.68136 -0.6855,2.2 -2.0016,5.125 -2.9247,6.5 -0.9231,1.375 -2.277,5.65 -3.0088,9.5 -1.4329,7.53936 -4.2733,17.08214 -6.5931,22.15113 -0.7932,1.73312 -1.4421,3.64562 -1.4421,4.25 0,0.60438 -0.5025,1.09887 -1.1166,1.09887 -0.6725,0 -0.9123,-1.06857 -0.603,-2.68662 0.772,-4.03855 -0.048,-5.47545 -2.3164,-4.05881 -1.5469,0.96605 -2.6064,0.62312 -6.3246,-2.04706 -5.2733,-3.78699 -7.5447,-3.92665 -13.8216,-0.84981 -4.3572,2.13584 -4.861,2.1867 -7.2573,0.73271 -2.1974,-1.33331 -2.8931,-1.36376 -4.7443,-0.20768 -1.8535,1.15748 -2.3303,1.13471 -3.2743,-0.15638 -0.9481,-1.29656 -1.4713,-1.31923 -3.6846,-0.15959 -2.3311,1.22141 -2.9058,1.10946 -5.9684,-1.16265 -4.1587,-3.08528 -8.9735,-2.59023 -13.1268,1.34963 -2.4498,2.32396 -2.9921,2.46113 -5.1546,1.30378 -1.3292,-0.71138 -2.9123,-0.98716 -3.518,-0.61285 -1.268,0.78365 -8.0895,-1.44724 -8.0895,-2.64556 0,-1.40297 -3.2779,-0.85759 -5.1774,0.86143 -2.5226,2.28288 -3.4517,0.94847 -1.4581,-2.09415 2.3122,-3.52886 2.0998,-4.94471 -0.6145,-4.0968 -1.2375,0.38657 -3.1157,0.68613 -4.1739,0.66569 -1.0581,-0.0205 -3.4362,1.29075 -5.2848,2.91377 -3.3348,2.92806 -6.2913,3.85382 -6.2913,1.97 0,-1.85873 -4.7484,-2.23004 -7.2827,-0.56949 -2.382,1.56079 -2.4878,1.53127 -2.9373,-0.8199 -0.2564,-1.34145 -0.049,-3.18422 0.4606,-4.09506 2.5605,-4.57543 -2.2436,-5.28925 -6.3291,-0.94041 -3.1488,3.35172 -3.8041,3.0237 -3.1847,-1.59419 0.7633,-5.69093 -1.389,-5.25861 -7.4678,1.5 -5.204,5.78594 -7.4495,6.94454 -6.5121,3.35996 0.5148,-1.96862 0.2781,-2.08722 -2.9552,-1.48067 -2.5466,0.47775 -3.862,0.24088 -4.7757,-0.85996 -0.6935,-0.83563 -0.8683,-1.53364 -0.3884,-1.55113 0.4798,-0.0175 0.068,-0.64193 -0.9151,-1.38763 -0.9831,-0.74571 -1.6581,-1.9689 -1.5,-2.7182 0.3712,-1.759 -5.3715,-2.38282 -8.1663,-0.8871 -1.7501,0.9366 -2.0462,0.80054 -2.0462,-0.94009 0,-1.55724 -0.6458,-2.03158 -2.75,-2.01987 -1.5125,0.008 -3.316,0.37466 -4.0079,0.81387 -0.6918,0.4392 -4.6611,0.21567 -8.8206,-0.49674 -10.7526,-1.84162 -50.4705,-1.13773 -59.7504,1.05891 -7.0104,1.65943 -20.6315,6.89 -24.1436,9.27125 -1.0849,0.73557 -2.4349,1.32372 -3,1.30699 -0.5651,-0.0167 -0.24,-0.48908 0.7225,-1.04969 2.2122,-1.28849 2.2568,-3.51144 0.087,-4.34401 -1.0515,-0.40351 -2.6341,0.29241 -4.3047,1.89301 -1.4531,1.39211 -3.1689,2.5311 -3.813,2.5311 -0.6441,0 -2.6445,0.89832 -4.4453,1.99626 -3.9678,2.41914 -4.7742,2.48616 -4.7742,0.39675 0,-1.00201 -0.5526,-1.39492 -1.468,-1.04367 -0.8073,0.30982 -1.7581,0.0939 -2.1127,-0.47992 -0.3845,-0.6221 -1.9309,0.20336 -3.8308,2.04485 -2.2841,2.21382 -3.4923,2.78191 -4.2676,2.00661 -0.7753,-0.7753 -2.3992,-0.63407 -5.7361,0.49882 -5.7134,1.93976 -5.5848,1.94079 -5.5848,-0.0447 0,-1.27222 -0.6513,-1.49474 -3,-1.025 -2.8649,0.57299 -3,0.44622 -3,-2.81598 0,-4.41103 -1.0541,-4.96643 -4.0875,-2.1537 -1.3484,1.25031 -2.9456,2.10865 -3.5493,1.90743 -0.6037,-0.20123 -1.3726,1.00913 -1.7087,2.68969 -0.6359,3.17961 -4.3538,5.56331 -7.9638,5.10596 -1.2089,-0.15315 -2.1943,0.79055 -2.9693,2.84369 -1.5985,4.23499 -2.342,3.85747 -3.0855,-1.56666 z m 255.7993,-30.25565 c 0.3043,-0.49236 -0.075,-1.13636 -0.8432,-1.43109 -1.4663,-0.56267 -2.592,0.0857 -2.592,1.49298 0,1.11676 2.7373,1.06745 3.4352,-0.0619 z m -173.0986,-3.85478 c 0.7633,-1.5125 1.6319,-4.66129 1.9301,-6.9973 0.2982,-2.33602 1.9352,-7.22404 3.6378,-10.86228 1.7025,-3.63823 3.0955,-7.46444 3.0955,-8.50269 0,-1.30871 0.7127,-1.88773 2.3236,-1.88773 2.3785,0 13.2185,-11.03616 16.5813,-16.88138 5.9316,-10.31027 11.0229,-17.91013 16.8927,-25.21599 3.7131,-4.62145 8.4659,-10.76513 10.5619,-13.65263 2.096,-2.8875 4.1922,-5.25 4.6583,-5.25 0.4661,0 1.1533,-1.0125 1.5272,-2.25 0.3738,-1.2375 1.7028,-3.375 2.9532,-4.75 3.3857,-3.72299 5.5137,-8.48818 6.0185,-13.47701 0.3915,-3.86956 0.2248,-4.37678 -1.2834,-3.90358 -1.6281,0.51085 -1.6271,0.45634 0.017,-0.89802 2.0324,-1.67452 2.197,-3.84332 0.6223,-8.19816 -0.8949,-2.47475 -0.7766,-4.55436 0.5731,-10.071 0.9355,-3.82372 1.9517,-8.07723 2.2583,-9.45223 0.3066,-1.375 1.11,-3.175 1.7853,-4 3.8073,-4.65128 4.4259,-12.82277 1.3982,-18.4717 -1.8926,-3.53112 -1.9941,-4.47268 -0.9738,-9.03172 1.0378,-4.6372 0.6198,-21.7536 -0.5799,-23.74658 -0.8143,-1.35282 -2.3334,-0.78484 -2.3334,0.87244 0,1.16835 -0.3499,1.34061 -1.25,0.61548 -0.6875,-0.55384 -2.6892,-1.31457 -4.4482,-1.69051 -1.7589,-0.37595 -4.8359,-1.98512 -6.8377,-3.57594 -6.076,-4.82857 -6.958,-4.74861 -12.2426,1.10988 -2.5968,2.87882 -5.235,5.95676 -5.8625,6.83987 -1.6981,2.38952 -4.359,11.97437 -4.359,15.70126 0,1.79272 -0.5118,3.57576 -1.1372,3.96232 -1.5989,0.98819 -4.8138,-3.53303 -4.8406,-6.80746 -0.024,-2.88922 4.3068,-13.08813 6.8077,-16.03347 2.2884,-2.69503 0.62,-3.25049 -3.7901,-1.26183 -5.1924,2.34147 -6.4484,3.84358 -9.0611,10.8368 -1.1956,3.20036 -2.6925,5.9778 -3.3263,6.17209 -4.3145,1.32254 -8.4484,1.3787 -10.1454,0.13783 -1.7595,-1.28654 -1.7821,-1.55995 -0.3146,-3.79966 1.4145,-2.15882 1.4233,-2.71496 0.083,-5.27266 -1.0238,-1.95391 -1.3494,-4.63202 -1.0285,-8.45786 0.5527,-6.59059 -0.4089,-9.30851 -5.0431,-14.25408 -1.8839,-2.01053 -3.938,-4.56321 -4.5646,-5.67262 -0.6267,-1.10941 -3.0519,-4.80322 -5.3894,-8.20845 -2.9784,-4.33886 -4.25,-7.22156 -4.25,-9.63456 0,-4.96174 2.0381,-12.32887 3.4107,-12.32887 1.4322,0 13.007,-11.91562 12.2805,-12.64212 -0.2847,-0.28473 -1.6463,0.22181 -3.0257,1.12564 -3.4477,2.25899 -15.42,2.79898 -21.4547,0.96768 -8.9609,-2.7193 -12.8356,-1.12568 -4.9608,2.04031 2.3375,0.93976 6.8996,1.73678 10.1379,1.77115 5.1684,0.0548 5.6644,0.22592 4.0589,1.39992 -2.3307,1.70425 -4.9321,1.6344 -9.9468,-0.26708 -2.2,-0.83419 -5.4138,-1.94714 -7.1418,-2.47323 -1.7279,-0.52608 -3.6619,-1.58333 -4.2978,-2.34944 -0.9348,-1.12635 -0.5636,-1.52304 1.9396,-2.07283 2.5217,-0.55386 2.8786,-0.9413 1.9253,-2.08995 -0.6436,-0.77553 -1.4591,-1.41005 -1.8122,-1.41005 -0.3531,0 -3.4528,2.27431 -6.8882,5.05402 -5.314,4.29975 -6.3451,4.79621 -6.9091,3.32657 -0.7911,-2.06147 4.3818,-6.78018 9.4364,-8.60796 4.0714,-1.47223 3.6387,-3.36365 -0.6883,-3.00834 -4.1318,0.33928 -8.0719,2.39758 -11.8809,6.20651 -3.3431,3.3431 -4.4188,3.80717 -3.5446,1.5292 0.9855,-2.56818 -1.012,-1.65284 -4.3644,2 -1.7667,1.925 -3.8324,3.5 -4.5903,3.5 -0.7579,0 -1.8664,1.0125 -2.4632,2.25 -2.2432,4.65124 -1.2596,-1.53938 1.1916,-7.5 1.7651,-4.29221 2.0252,-5.75 1.026,-5.75 -0.7363,0 -1.6986,0.59644 -2.1384,1.32541 -0.4398,0.72898 -1.5137,1.58664 -2.3863,1.90592 -1.7385,0.63607 -6.5293,9.76149 -7.2526,13.81448 -0.2499,1.4002 -1.4244,5.6752 -2.61,9.5 -5.3741,17.33683 -5.6325,34.50017 -0.6844,45.45515 1.3661,3.02447 2.7897,8.04874 3.1635,11.16504 0.6332,5.2792 0.3742,6.33732 -3.7935,15.5 -4.2322,9.30435 -6.8038,16.4134 -8.1608,22.56045 -0.5234,2.37105 0.2145,3.50879 5.6613,8.72821 3.4447,3.30097 6.7731,6.01157 7.3965,6.02355 0.6233,0.012 1.3958,-0.98179 1.7165,-2.20838 0.6138,-2.34694 -3.5251,-7.76983 -5.93,-7.76983 -2.5352,0 -2.4108,-3.05295 0.1643,-4.03201 3.5316,-1.34271 3.7682,-1.2862 6.4158,1.53201 1.2917,1.375 3.0003,2.5 3.7968,2.5 1.184,0 1.2174,0.27795 0.1831,1.52417 -2.2244,2.68031 -0.1984,2.78522 2.4595,0.12735 3.7732,-3.77319 3.3382,-6.84061 -1.4394,-10.15152 -4.0815,-2.82851 -4.7469,-3.92033 -3.0343,-4.9788 1.2291,-0.75965 7.9849,2.65847 10.2881,5.2053 1.3976,1.54552 1.6212,2.93778 1.1008,6.85641 -0.5351,4.0296 -1.3781,5.59396 -4.6703,8.66722 -4.7724,4.45492 -4.366,5.64848 0.9923,2.91487 2.1287,-1.08598 6.0168,-2.29639 8.6402,-2.6898 2.6234,-0.3934 4.6261,-0.99876 4.4504,-1.34524 -0.1756,-0.34648 -1.1558,-2.26998 -2.1782,-4.27444 -1.3007,-2.55034 -1.6358,-4.50175 -1.1162,-6.5 0.6745,-2.59343 0.8154,-2.67196 1.5357,-0.85552 1.8106,4.56587 8.2035,9.5 12.3086,9.5 3.0961,0 9.0847,3.41403 10.769,6.13929 0.8485,1.37295 -0.8984,6.86071 -2.1839,6.86071 -0.4962,0 -0.9022,0.675 -0.9022,1.5 0,0.98184 0.9828,1.5 2.845,1.5 6.6673,0 8.3941,7.63029 3.1917,14.10393 l -3.0897,3.84468 2.7765,0.66358 c 1.5271,0.36497 3.3778,1.13883 4.1127,1.71968 2.2713,1.7952 0.5264,6.86349 -3.5817,10.40325 -2.4516,2.1125 -3.194,3.24029 -2.1394,3.25 2.6875,0.0248 7.0178,4.0208 6.415,5.91987 -0.4477,1.41059 0.1058,1.68466 3.2146,1.59171 4.8741,-0.14574 6.8573,-1.29724 15.2457,-8.85228 10.5501,-9.50201 23.2792,-14.02398 28.4558,-10.10887 2.6583,2.01043 1.7178,2.71853 -9.8772,7.43639 -11.8137,4.80682 -18.1562,8.38822 -19.5858,11.05944 -0.5795,1.08274 -1.7825,1.96862 -2.6734,1.96862 -1.4802,0 -1.4772,0.15756 0.035,1.82874 0.9103,1.00581 1.655,2.13081 1.655,2.5 0,0.36919 -4.9641,0.67126 -11.0314,0.67126 -8.9244,0 -11.1422,0.28892 -11.6118,1.51273 -0.3193,0.83201 -0.139,2.06951 0.4005,2.75 0.5396,0.6805 1.2129,3.40279 1.4961,6.04954 0.6302,5.88868 3.781,9.68773 8.0348,9.68773 3.6677,0 10.1907,3.46816 14.4618,7.68909 2.7762,2.7435 3.2478,3.91155 3.2347,8.01134 -0.025,8 -1.3225,8.58962 -6.2414,2.83738 -8.4139,-9.83939 -10.2095,-11.43064 -13.2433,-11.73592 l -3,-0.30189 0.2185,13.31073 0.2185,13.31073 3.9831,4.52513 c 2.1908,2.48883 5.0152,7.1865 6.2765,10.43927 1.2613,3.25278 2.6215,5.91414 3.0226,5.91414 0.4012,0 1.354,-1.2375 2.1174,-2.75 z m 18.4708,-51.9358 c -0.1691,-2.64781 0.2725,-6.60747 0.9812,-8.79926 1.8744,-5.79695 12.4339,-26.87636 13.9334,-27.81463 0.7029,-0.43983 1.278,-1.42019 1.278,-2.17857 0,-0.75839 0.5625,-1.98912 1.25,-2.73496 1.3071,-1.41808 3.0198,-4.79399 12.0671,-23.78678 6.0681,-12.73862 6.6634,-14.22405 7.3575,-18.35921 l 0.4799,-2.8592 -3.8273,3.06406 c -4.5955,3.67915 -10.2498,6.16452 -12.8967,5.66887 -1.0618,-0.19882 -2.7395,-0.39593 -3.7283,-0.43801 -0.9887,-0.0421 -2.9227,-1.29045 -4.2978,-2.77415 -1.9675,-2.123 -2.4366,-3.55903 -2.2022,-6.74138 0.3962,-5.37965 2.6914,-5.73865 5.2978,-0.82864 2.4221,4.56275 5.2765,5.16692 12.7242,2.6932 7.0031,-2.32605 13.2744,-8.8323 18.7242,-19.42554 4.1718,-8.10893 4.3771,-8.91408 4.4623,-17.5 0.049,-4.95 -0.2566,-10.56094 -0.6795,-12.46875 -0.5711,-2.57713 -0.4784,-3.17849 0.3605,-2.33953 0.6211,0.62107 1.7528,3.75701 2.515,6.96875 1.2637,5.325 1.2035,6.63254 -0.6834,14.83953 -2.2092,9.60915 -7.0506,19.52683 -11.3538,23.25856 -2.4962,2.16473 -2.5366,2.36205 -0.9719,4.75 0.8978,1.37029 2.0119,2.49144 2.4757,2.49144 2.1123,0 -0.7353,16.84237 -4.1422,24.5 -2.1579,4.85008 -3.3002,8.16185 -3.5493,10.29 -0.1475,1.2595 -1.1937,3.78761 -2.325,5.61803 -1.1312,1.83042 -2.0568,4.03028 -2.0568,4.88858 0,0.85829 -0.6156,2.17616 -1.3681,2.9286 -0.7524,0.75244 -1.6501,2.25677 -1.9948,3.34295 -0.3448,1.08619 -1.9792,3.45548 -3.632,5.26508 -1.6528,1.80961 -3.0051,3.5513 -3.0051,3.87042 0,1.38713 -8.4763,13.98039 -10.6323,15.79634 -1.3059,1.1 -3.6104,4.44336 -5.1211,7.42969 -3.6106,7.13771 -5.0484,7.5037 -5.4392,1.38451 z m -17.5574,-0.95665 c -3.6819,-1.54447 -4.1575,-2.93474 -1.3128,-3.83762 1.0654,-0.33816 3.2233,-2.5565 4.7952,-4.92964 3.7507,-5.66247 8.2342,-10.95703 8.7997,-10.3915 0.5892,0.58916 -1.9692,10.27928 -3.9642,15.01514 -2.031,4.82102 -4.1667,5.88494 -8.3179,4.14362 z m -13.9938,-95.32783 c -5.5572,-2.52258 -9.2562,-6.31478 -9.2562,-9.48951 0,-1.93144 1.37,-3.58122 5.643,-6.79545 9.5342,-7.17179 13.3565,-10.88887 14.0084,-13.62298 0.9228,-3.87039 1.3778,-4.34243 2.9376,-3.04789 1.8548,1.53932 1.7957,6.28155 -0.1246,9.99495 -0.8446,1.63323 -5.0071,5.5026 -9.25,8.59859 -4.2429,3.09599 -8.1182,5.9887 -8.6118,6.42824 -0.4936,0.43954 1.6439,1.92306 4.75,3.29672 4.2209,1.86669 5.6474,3.01663 5.6474,4.55258 0,2.50812 -0.3923,2.51391 -5.7438,0.0847 z m 54.7438,-2.35541 c 0,-0.72912 1.125,-2.38256 2.5,-3.67431 3.096,-2.90857 3.3497,-7.47488 0.5,-9 -1.1,-0.5887 -2,-1.53668 -2,-2.10661 0,-0.56994 -0.7212,-1.75742 -1.6026,-2.63885 -3.6972,-3.69724 0.8051,-14.08405 7.8336,-18.07216 l 4.723,-2.67987 4.5037,4.99874 c 5.0684,5.62547 6.2468,8.59329 4.9153,12.37947 -1.5146,4.3066 -4.0695,3.87533 -4.8629,-0.82086 -0.9114,-5.39477 -2.2635,-5.99021 -3.0375,-1.33765 -1.1006,6.61608 -1.2755,6.8116 -3.8932,4.35238 -4.7147,-4.42925 -4.6058,3.14469 0.1167,8.11033 3.5056,3.68617 2.5668,7.13016 -2.6723,9.80292 -4.5666,2.32973 -7.0238,2.56989 -7.0238,0.68647 z m -93,-17.47379 c -5.691,-3.8575 -6.4132,-5.36531 -1.25,-2.60961 2.8875,1.54111 5.25,3.16362 5.25,3.60556 0,1.19697 -1.2088,0.89598 -4,-0.99595 z m -3.5271,-6.24432 c -0.3548,-0.5741 -0.1508,-1.63939 0.4533,-2.36733 0.8163,-0.98354 0.71,-1.64592 -0.4139,-2.57864 -0.8318,-0.69031 -1.5123,-1.76831 -1.5123,-2.39555 0,-0.62723 -1.0099,-1.58463 -2.2442,-2.12755 -1.2342,-0.54292 -2.3995,-1.81219 -2.5894,-2.82059 -0.3223,-1.71198 0.4743,-1.81136 12.0226,-1.5 10.8451,0.29241 12.7037,0.59811 15.0966,2.4831 l 2.7289,2.14964 -3.1565,1.10036 c -1.736,0.6052 -5.5643,1.10036 -8.5072,1.10036 -2.943,0 -5.3508,0.45 -5.3508,1 0,0.55 1.575,1 3.5,1 1.925,0 3.5,0.417 3.5,0.92668 0,0.50967 0.7875,1.13247 1.75,1.38399 1.2077,0.31562 0.9753,0.50425 -0.75,0.60876 -1.375,0.0833 -3.625,0.79455 -5,1.58057 -2.9383,1.67969 -8.6033,1.95095 -9.5271,0.4562 z m 121.986,-18.02273 c -0.3626,-0.58659 -0.4447,-1.281 -0.1826,-1.54313 0.2621,-0.26213 0.7431,0.21781 1.0688,1.06653 0.6762,1.76211 0.1,2.07206 -0.8862,0.4766 z m -94.1572,-6.30776 -3.0833,-4.3743 -7.3592,0.49328 c -5.9033,0.39569 -8.2339,1.06323 -11.7806,3.37429 -5.2476,3.41934 -7.2992,3.5722 -11.1492,0.83073 -4.5018,-3.20554 -6.2874,-12.94971 -2.3731,-12.94971 0.7383,0 2.6548,1.40438 4.259,3.12085 l 2.9167,3.12085 7.6721,-3.79173 c 4.9121,-2.42769 9.5486,-3.94736 12.8886,-4.22433 5.1936,-0.4307 5.2287,-0.41404 7.9849,3.7958 2.4476,3.73837 4.6271,10.10749 4.6979,13.72856 0.046,2.34601 -1.5877,1.254 -4.6738,-3.12429 z m -44.9087,-21.62571 c 0.3634,-6.33 5.6977,-22.30071 6.3461,-19 0.2854,1.45285 -0.701,5.37763 -4.7752,19 l -1.9441,6.5 0.3732,-6.5 z m 11.857,5.33772 c -1.909,-0.77028 -1.488,-2.33772 0.6279,-2.33772 1.0328,0 3.5564,-0.70136 5.6081,-1.55858 5.0723,-2.11935 5.4851,-1.17342 0.8596,1.96968 -3.8254,2.59947 -4.7834,2.85959 -7.0956,1.92662 z m 4,-29.32356 c -3.4024,-1.43614 -2.7015,-2.10962 1.5,-1.44131 2.31,0.36743 5.478,-0.006 8.25,-0.97363 6.0803,-2.12151 7.1549,-1.99107 3.2436,0.39373 -3.9211,2.39074 -9.9108,3.32246 -12.9936,2.02121 z m 291.55,244.78584 c 0.66,-0.66 1.2,-1.99614 1.2,-2.96921 0,-0.97306 0.8539,-3.47056 1.8976,-5.55 2.4591,-4.89927 3.6264,-20.28079 1.5392,-20.28079 -0.7557,0 -1.1448,-0.5974 -0.8646,-1.32755 0.2802,-0.73015 0.01,-2.64265 -0.6017,-4.25 -0.6111,-1.60735 -1.05,-3.14745 -0.9752,-3.42245 0.2741,-1.00859 3.5623,0.22667 5.5789,2.0958 2.405,2.22915 3.4314,1.62383 3.4121,-2.01247 -0.034,-6.37537 -1.1709,-7.56361 -9.676,-10.1095 -2.3043,-0.68977 -5.6551,-2.76606 -7.4461,-4.61398 -3.0509,-3.14764 -5.8642,-4.37574 -5.8642,-2.55986 0,0.44 2.6771,4.698 5.9491,9.46223 6.27,9.1293 7.7548,13.85444 7.9803,25.39524 0.1316,6.73721 -4.81,18.26113 -6.6618,15.53528 -0.9658,-1.4216 -1.1594,-1.44807 -1.2088,-0.16525 -0.066,1.70778 2.6462,5.97251 3.7979,5.97251 0.4088,0 1.2833,-0.54 1.9433,-1.2 z m -52.8702,-13.73046 c 1.6886,-5.43518 3.0702,-10.59931 3.0702,-11.47584 0,-0.87654 0.473,-1.5937 1.051,-1.5937 0.5781,0 1.6954,-1.54225 2.483,-3.42722 0.7876,-1.88497 2.3483,-3.71802 3.4681,-4.07345 1.1198,-0.35542 4.2614,-3.87567 6.9812,-7.82278 6.2887,-9.12651 9.7547,-12.95648 11.0185,-12.17542 1.4305,0.88407 1.2323,-0.72454 -0.5226,-4.24227 -1.8783,-3.76518 -2.9574,-4.64277 -7.8326,-6.37014 -2.9639,-1.05013 -4.1981,-2.22668 -5.3465,-5.09665 -2.1059,-5.26321 -9.3637,-9.98094 -14.6036,-9.49259 -2.1276,0.1983 -4.1672,0.77453 -4.5324,1.28053 -0.8321,1.15267 -4.1671,3.30642 -6.2148,4.01355 -0.8529,0.29451 -2.1316,2.41895 -2.8415,4.72096 -0.7099,2.30202 -3.7307,7.56048 -6.713,11.68548 -7.9989,11.06405 -14.2128,24.25055 -14.5888,30.95891 l -0.306,5.45892 3.3725,0.18023 c 3.8117,0.2037 5.2648,1.78711 4.8865,5.32482 -0.3891,3.64008 -2.759,3.86979 -2.759,0.26744 0,-3.25786 -1.4348,-4.29309 -4.4575,-3.21607 -1.4847,0.52901 -2.0292,1.79652 -2.2543,5.24743 l -0.2968,4.54994 4.5014,0.67502 c 2.4757,0.37127 4.8732,0.44521 5.3277,0.16432 0.9343,-0.57747 2.4419,-5.24293 4.6119,-14.27203 0.8793,-3.65872 2.4531,-7.13352 3.8749,-8.55536 1.6798,-1.67974 2.3362,-3.37082 2.1997,-5.66643 -0.1703,-2.8628 0.6049,-3.98174 6.1975,-8.94464 4.3107,-3.82533 7.537,-7.83328 9.9076,-12.30806 1.9334,-3.64955 4.6009,-7.65537 5.9277,-8.90182 l 2.4123,-2.26627 0.9104,2.40183 c 1.4491,3.82346 -2.9454,12.41916 -10.842,21.20676 -3.0804,3.42797 -7.9693,12.55589 -7.9989,14.93433 -0.012,0.9566 -0.9214,4.1066 -2.0211,7 -2.8836,7.58682 -2.6931,8.76073 1.4219,8.76073 3.0218,0 3.5571,0.40794 4.5724,3.4843 0.6325,1.91637 0.8567,4.50387 0.4982,5.75 -1.7809,6.19151 -1.7564,6.44656 0.384,3.99155 1.0905,-1.25079 3.3643,-6.72113 5.0528,-12.15631 z m 15.5255,12.07134 c 0.9132,-2.8773 -0.4268,-5.14088 -3.0432,-5.14088 -1.6835,0 -2.5523,0.71058 -2.9872,2.44316 -0.3373,1.34375 -0.3193,2.91875 0.04,3.5 1.1053,1.78845 5.3485,1.22016 5.9904,-0.80228 z m -23.4553,-5.14148 0,-5.9994 -3.5,0 c -3.5344,0 -3.7222,0.2523 -3.7222,5 0,6.29048 0.1111,6.49179 3.7242,6.7494 l 3.498,0.2494 0,-5.9994 z m -23.6198,1.99959 c 0.4968,-0.48501 -0.7217,-1.16003 -2.7966,-1.54928 -4.1396,-0.77659 -5.1178,-0.28414 -4.1978,2.11323 0.4732,1.23331 1.324,1.47852 3.3735,0.97237 1.5074,-0.37226 3.1368,-1.06361 3.6209,-1.53632 z m 52.635,-1.02733 c 0.597,-1.11559 1.2342,-3.6852 1.4159,-5.71025 0.2605,-2.90343 0.8655,-3.86027 2.8613,-4.52553 2.9337,-0.97792 5.7076,-6.14746 5.7076,-10.63701 0,-2.61111 0.3807,-3.09887 2.419,-3.09887 1.3304,0 3.8025,-0.7875 5.4936,-1.75 3.8809,-2.20883 4.216,-6.82637 0.7849,-10.81524 -2.1354,-2.48258 -2.6787,-2.62502 -7.4891,-1.96343 -4.3775,0.60207 -5.6337,1.28393 -8.0528,4.37101 -1.5764,2.01171 -3.4377,4.78266 -4.1363,6.15766 -0.6985,1.375 -2.9638,4.75 -5.034,7.5 -2.3732,3.15248 -4.1744,6.95808 -4.8747,10.29922 -1.5496,7.39377 -1.5327,7.45239 1.9304,6.69178 3.4659,-0.76124 5.959,0.75805 5.959,3.63144 0,2.47762 1.6527,2.39497 3.0152,-0.15078 z m 22.1229,-2.72166 c 4.3863,-5.30063 5.9392,-17.5997 2.6391,-20.90088 -1.6306,-1.63109 -1.8018,-1.53458 -3.196,1.8023 -0.9252,2.21425 -3.3434,4.7946 -6.5014,6.93712 -6.1932,4.20183 -6.6143,6.80853 -1.5798,9.77896 1.925,1.13578 3.5,2.53023 3.5,3.09877 0,1.67812 3.5684,1.18067 5.1381,-0.71627 z m -92.0976,-7.43806 c 4.0683,-3.00783 3.7109,-3.71037 -1.2905,-2.537 -7.3583,1.72629 -7.1101,1.58631 -5.7402,3.23689 1.7021,2.05092 3.5602,1.86595 7.0307,-0.69989 z m 0.3527,-6.24254 c 0.6581,-2.62199 -0.6068,-6.96532 -2.3405,-8.03681 -0.5888,-0.36393 -1.9666,-0.37731 -3.0617,-0.0298 -2.73,0.86648 -2.9325,9.10448 -0.241,9.80783 3.8292,1.00068 5.0495,0.62413 5.6432,-1.74127 z m 6.4908,-6.8194 c 0.5715,-1.7875 0.9576,-3.925 0.858,-4.75 -0.2163,-1.79043 7.0869,-17 8.1629,-17 0.4118,0 0.5614,-1.27614 0.3325,-2.83587 -0.328,-2.235 0.2546,-3.40036 2.7499,-5.5 1.7414,-1.46527 3.5029,-2.66413 3.9146,-2.66413 0.4116,0 2.5146,-2.4653 4.6732,-5.47843 2.1587,-3.01314 4.4032,-5.48814 4.9878,-5.5 1.3463,-0.0273 5.9492,-4.96677 6.7472,-7.24064 0.6212,-1.7699 -1.3821,-6.58938 -3.2081,-7.71791 -0.5662,-0.34988 -7.0059,-0.55429 -14.3106,-0.45423 -15.4817,0.21207 -17.9939,-0.62375 -24.6696,-8.20777 -2.7093,-3.07792 -4.1218,-4.10009 -4.1218,-2.98279 0,0.93489 -0.4508,1.42117 -1.0019,1.08061 -1.3193,-0.81538 -2.9981,3.72915 -2.9981,8.11592 0,4.6946 2.1123,8.46952 7.1538,12.78487 3.4025,2.91242 5.0204,3.60037 8.4672,3.60037 4.5466,0 6.2278,-1.27234 4.4738,-3.38581 -1.4508,-1.74803 -0.3762,-2.61419 3.2431,-2.61419 1.6525,0 3.8275,-0.74474 4.8334,-1.65499 4.0887,-3.70025 1.4215,0.57751 -4.1494,6.65499 -3.277,3.575 -6.2279,7.2875 -6.5574,8.25 -0.3296,0.9625 -0.9523,1.75 -1.3839,1.75 -1.4942,0 -7.1463,13.8198 -8.4496,20.65983 -0.72,3.77859 -1.7707,7.76342 -2.3349,8.85517 -1.2806,2.47798 -0.5688,4.94403 1.0511,3.6419 1.6256,-1.30662 5.1201,0.24488 7.3043,3.24303 2.4223,3.32483 2.9895,3.23773 4.2325,-0.64993 z m -11.7638,-60.75 c -1.2365,-2.2 -1.8175,-4 -1.2912,-4 0.5264,0 1.1987,0.6297 1.494,1.39934 0.2953,0.76964 2.164,1.93631 4.1526,2.5926 2.9437,0.9715 3.3985,1.45481 2.4475,2.60066 -2.0432,2.46202 -4.4851,1.53143 -6.8029,-2.5926 z m 70.2614,58.44806 c 0.3414,-0.88992 0.1738,-1.29132 -0.3931,-0.94098 -0.5437,0.33602 -0.9885,1.0344 -0.9885,1.55194 0,1.43843 0.7168,1.12146 1.3816,-0.61096 z m -107.6886,-3.17903 c -0.2536,-0.97297 -0.4777,-0.41903 -0.4981,1.23097 -0.02,1.65 0.1871,2.44606 0.461,1.76903 0.274,-0.67703 0.2906,-2.02703 0.037,-3 z m 0.807,-5.26903 c 0.3399,-0.55 0.1415,-1 -0.441,-1 -0.5824,0 -1.059,0.45 -1.059,1 0,0.55 0.1984,1 0.441,1 0.2425,0 0.7191,-0.45 1.059,-1 z m 159.4649,-22.25 c -0.097,-3.45663 -3.8199,-14.19704 -5.0522,-14.57627 -0.777,-0.23909 -2.0877,-1.00929 -2.9127,-1.71156 -1.719,-1.4633 -7.4446,-1.41762 -8.9334,0.0713 -1.8906,1.89058 0.1145,5.24708 5.0418,8.43986 2.7135,1.75828 6.1616,4.48691 7.6626,6.06363 2.9789,3.12923 4.2482,3.64774 4.1939,1.71307 z m -294.9836,-1.59242 c 1.6662,-1.01332 5.0227,-3.7105 7.4587,-5.99372 2.683,-2.51472 5.0155,-3.92631 5.9164,-3.58058 2.2009,0.84455 5.6436,-1.36279 5.6436,-3.61846 0,-2.08916 -3.3599,-2.80954 -4.5,-0.96482 -0.3399,0.55 -1.154,0.98503 -1.809,0.96673 -1.5041,-0.042 3.126,-3.96892 4.6698,-3.96057 0.6265,0.003 2.3767,0.6517 3.8892,1.4407 2.9687,1.54861 3.0557,1.51347 2.143,-0.86507 -0.4275,-1.11407 -1.9212,-1.58179 -5.0515,-1.58179 -3.3272,0 -7.2859,1.36598 -15.7481,5.43396 -8.3613,4.01948 -12.9683,5.61768 -17.6986,6.13977 -3.5171,0.3882 -7.4852,1.11141 -8.818,1.60714 -4.1284,1.5356 -0.4788,3.60567 8.2529,4.68094 4.3063,0.53031 8.0938,1.22834 8.4166,1.55119 1.1173,1.11726 4.2182,0.57919 7.235,-1.25542 z m -30.6332,-11.65533 c 3.6848,-1.92179 8.0665,-2.23298 9.9091,-0.70374 1.881,1.56109 6.2032,0.72969 15.7428,-3.02823 17.7709,-7.00046 19.4695,-8.02449 17.9672,-10.8316 -0.885,-1.65356 -0.5603,-2.49944 1.9061,-4.96587 3.1581,-3.15807 5.068,-3.60978 8.1924,-1.93763 1.2661,0.67757 1.9343,0.68973 1.9343,0.0352 0,-1.52303 -3.5046,-3.07038 -6.9541,-3.07038 -1.6971,0 -4.8806,1.1331 -7.0744,2.518 -2.1938,1.38489 -6.2933,3.42635 -9.1099,4.53656 -2.8166,1.11021 -7.7613,3.32848 -10.9882,4.92949 -5.8124,2.88387 -5.9494,2.90079 -14.7295,1.81973 -9.6248,-1.18505 -12.3345,-0.8292 -16.1182,2.1167 -2.433,1.89433 -2.4429,1.96104 -0.595,4.00298 1.0635,1.1751 3.1143,2.07654 4.7243,2.07654 1.5647,0 2.845,0.45 2.845,1 0,0.55 -0.9266,1 -2.059,1 -1.1325,0 -1.7809,0.45 -1.441,1 0.8552,1.38378 2.5107,1.24287 5.8481,-0.49775 z m 314.1791,-8.54623 c 0.7432,-1.20253 -2.0903,-5.95602 -3.5503,-5.95602 -1.0929,0 -1.2977,3.00035 -0.3699,5.41821 0.6885,1.79416 2.9518,2.10467 3.9202,0.53781 z m -34.2725,-3.55567 c -0.2946,-1.08101 -5.8601,-2.63288 -7.9066,-2.2046 -2.6046,0.5451 -1.9201,2.26977 1.1519,2.90245 3.8411,0.79105 7.0695,0.45751 6.7547,-0.69785 z m -230.1591,-4.46844 c 3.2779,-2.33409 3.7558,-3.9481 1.1544,-3.89864 -2.3516,0.0447 -6.563,3.6512 -5.7673,4.93879 0.8759,1.41724 1.2943,1.3229 4.6129,-1.04015 z m -31.4506,-2.94482 c 3.2203,-1.15927 8.0138,-2.55488 10.6524,-3.10134 2.6386,-0.54647 6.9136,-2.22891 9.5,-3.73875 2.5864,-1.50985 6.1502,-3.334 7.9194,-4.05367 1.7693,-0.71968 3.7325,-1.92976 4.3627,-2.68908 1.8467,-2.22519 -1.4771,-2.84505 -4.5299,-0.84478 -3.3867,2.21905 -4.3347,1.24991 -1.4272,-1.45892 1.2401,-1.1553 3.4933,-2.10055 5.0071,-2.10055 3.79,0 4.5623,-1.7865 1.3073,-3.02404 -4.2014,-1.59736 -8.9249,-0.14131 -13.6285,4.20105 -3.8915,3.59256 -5.0078,4.05463 -11.5744,4.79105 -3.9972,0.44826 -7.9618,1.39115 -8.8102,2.0953 -1.1137,0.92422 -5.3344,1.22871 -15.177,1.09488 -16.1749,-0.21994 -20.2467,0.72916 -20.2467,4.71931 0,4.41381 1.5397,5.13585 9.5145,4.46174 6.2789,-0.53076 7.2538,-0.3855 7.8506,1.16978 0.5894,1.53602 1.5418,1.69545 7.0532,1.18079 3.5045,-0.32726 9.0065,-1.5435 12.2267,-2.70277 z m 266.7899,-2.96234 c 2.9297,-1.11388 3.4219,-2.88473 0.8151,-2.93257 -0.9625,-0.0177 -3.1592,-0.31389 -4.8816,-0.65827 -3.826,-0.76499 -5.568,1.21574 -2.8301,3.21779 2.1939,1.60419 3.476,1.67355 6.8966,0.37305 z m 31.5651,-6.52475 c 0,-0.825 -0.4234,-1.5 -0.941,-1.5 -1.261,0 -2.1641,1.56159 -1.3652,2.36052 1.1262,1.12618 2.3062,0.68589 2.3062,-0.86052 z m 7.9847,-4.75 c -0.01,-0.6875 -0.4422,-1.925 -0.9639,-2.75 -0.8342,-1.31935 -1.1477,-1.3008 -2.603,0.15404 -0.9099,0.90972 -1.3497,2.14722 -0.9771,2.75 0.9322,1.50842 4.5628,1.38534 4.544,-0.15404 z m -344.4178,-11.43632 c -0.304,-0.79225 -0.9975,-1.16562 -1.541,-0.82972 -1.1044,0.68257 -0.6067,8.79997 0.6595,10.75706 0.9391,1.45148 1.7488,-7.66717 0.8815,-9.92734 z m 41.4119,8.31358 c 3.5867,-1.305 8.4337,-2.95203 10.7712,-3.66005 4.4424,-1.34562 5.2791,-2.35834 2.75,-3.32884 -2.3101,-0.88645 -1.81,-2.52839 1.9,-6.23837 3.6577,-3.65767 7.5087,-4.41985 9.6,-1.9 1.4691,1.77022 -0.061,2.03856 -1.7868,0.31324 -0.9156,-0.91567 -1.7393,-0.66764 -3.6058,1.08583 -2.5165,2.36413 -4.071,6.10093 -2.538,6.10093 0.4853,0 2.3556,-0.89832 4.1564,-1.99626 1.8008,-1.09795 4.0617,-1.99795 5.0242,-2 2.5005,-0.005 2.1603,-2.68432 -0.7046,-5.54919 -2.3489,-2.34894 -7.5454,-3.42602 -7.5454,-1.56396 0,0.48983 -1.4625,1.12191 -3.25,1.40462 -4.447,0.70334 -14.2976,4.27448 -16.9873,6.15847 -2.4524,1.71773 -6.9954,2.02535 -9.5784,0.6486 -0.9264,-0.49375 -2.7542,-1.05625 -4.0619,-1.25 -2.1217,-0.31437 -2.5272,0.22875 -3.7676,5.04674 -0.7646,2.96947 -1.133,5.6561 -0.8188,5.97031 0.3142,0.3142 2.0096,0.47922 3.7676,0.3667 1.758,-0.11252 4.5464,0.42679 6.1964,1.19847 3.9147,1.83084 3.044,1.89792 10.4788,-0.80724 z m -27.504,-4.22911 c 3.0689,-4.68378 -0.1471,-17.39815 -4.4007,-17.39815 -2.3466,0 -4.588,-8.27632 -3.5764,-13.20586 0.6455,-3.14548 0.6069,-3.1999 -0.8542,-1.206 -2.9399,4.01194 -4.8458,10.27501 -4.3728,14.36986 0.5648,4.88933 2.2008,7.042 5.3517,7.042 3.2093,0 6.3864,3.38333 6.3385,6.75 -0.039,2.74218 -0.043,2.74051 -1.4884,-0.5872 -1.51,-3.47703 -4.2484,-3.89788 -3.6125,-0.55517 0.198,1.0408 0.503,3.46737 0.6777,5.39237 0.1747,1.925 0.3502,3.62833 0.39,3.78518 0.2312,0.91161 4.0587,-2.11542 5.5471,-4.38703 z m 169.8483,0.48049 c -1.1668,-1.16674 -2.6168,-1.81518 -3.2222,-1.44098 -2.4294,1.50144 -0.6444,3.09053 3.8713,3.44634 1.0574,0.0833 0.8745,-0.48173 -0.6491,-2.00536 z m -11.0559,-3.26142 c -0.2506,-1.31053 0.037,-2.68709 0.6386,-3.05902 1.2191,-0.75344 1.5458,-14.56335 0.3442,-14.54965 -0.4125,0.005 -1.5882,2.69724 -2.6126,5.98342 -1.8481,5.9286 -1.6647,10.06528 0.5654,12.75244 1.4478,1.74439 1.5854,1.59859 1.0644,-1.12719 z m 86.6494,-35.36722 c -1.1725,-7.09806 -5.445,-23.19834 -7.3639,-27.75 l -1.6863,-4 -2.1859,2.51821 -2.1858,2.5182 -3.2019,-3.5182 c -1.761,-1.93502 -5.0798,-6.44321 -7.3751,-10.01821 -7.2815,-11.34122 -9.7566,-14 -13.0331,-14 -3.9741,0 -4.7416,-2.4572 -1.7611,-5.638 2.89,-3.08424 7.3361,-2.75274 12.2195,0.91107 7.116,5.33894 7.7874,4.08262 1.4678,-2.7463 l -4.1891,-4.52677 -10.1648,0 c -9.5153,0 -10.3411,-0.16331 -12.9222,-2.55538 -1.5165,-1.40547 -2.943,-2.36964 -3.1701,-2.14261 -0.227,0.22704 -1.0893,3.73946 -1.9163,7.80539 -1.8049,8.87434 -3.9231,14.47455 -11.6139,30.70561 -5.8583,12.36352 -6.5737,14.61206 -4.9649,15.60631 1.1878,0.73414 8.5139,-13.78177 10.6134,-21.02932 2.1934,-7.57204 2.9988,-8.53755 6.1292,-7.34736 1.3515,0.51383 2.8706,0.82694 3.3758,0.6958 0.5052,-0.13114 3.1896,2.18774 5.9653,5.15306 5.2531,5.61189 5.9427,5.3391 3.518,-1.3915 -1.7816,-4.94505 -1.8742,-8.50212 -0.2212,-8.49341 3.6567,0.0193 14.7452,10.30353 19.25,17.85374 1.7375,2.91209 4.782,6.16058 7.2344,7.71905 5.0299,3.19647 8.1778,7.12349 11.1588,13.92062 5.1933,11.84178 6.5014,14.5 7.1357,14.5 0.3698,0 0.3193,-2.1375 -0.1123,-4.75 z m 20.0681,-60.5 c -0.028,-2.31956 -1.4763,-3.68225 -2.9468,-2.77343 -1.1666,0.72103 -1.1841,1.1424 -0.1012,2.44721 1.5699,1.89153 3.0691,2.05199 3.048,0.32622 z m -151.5179,-16.19778 c -2.2694,-5.94234 -3.9837,-7.12096 -3.0399,-2.09002 1.1659,6.21479 2.5026,9.00829 3.7254,7.78552 0.7706,-0.77062 0.5751,-2.39451 -0.6855,-5.6955 z m 67.5707,-4.30222 c 0.9254,-3.10467 0.7625,-5.07198 -0.9466,-11.43197 -1.1354,-4.22508 -2.3525,-10.97508 -2.7048,-15 -0.8125,-9.28287 -3.3887,-14.10647 -7.0439,-13.18906 -1.991,0.49969 -3.2752,-0.13414 -6.3445,-3.13125 -3.7034,-3.61628 -4.0488,-3.73624 -9.173,-3.18598 -2.9286,0.31448 -8.2497,0.86374 -11.8247,1.22057 -6.2652,0.62534 -16.8297,4.01868 -18.1302,5.82345 -1.2896,1.78969 -14.3594,6.44913 -15.3698,5.47942 -0.6594,-0.63289 -0.4225,-1.28564 0.6956,-1.91672 0.9326,-0.52633 2.5982,-2.22458 3.7014,-3.77389 1.8856,-2.64802 1.9175,-3.11065 0.5314,-7.71617 -0.9949,-3.30594 -1.2645,-6.75466 -0.829,-10.60445 0.355,-3.13785 0.3381,-7.75519 -0.038,-10.26075 -0.562,-3.7476 -1.124,-4.66622 -3.169,-5.17948 -3.4952,-0.87725 -3.9309,0.0518 -1.5755,3.35961 1.563,2.19503 2.0266,4.38091 1.9976,9.4178 -0.021,3.60763 0.2737,8.40324 0.6544,10.65692 0.3808,2.25368 0.4161,4.968 0.078,6.03181 -0.691,2.17732 -3.9029,3.39482 -5.2918,2.00592 -0.5505,-0.55051 -1.8741,0.3637 -3.3344,2.30305 -1.3318,1.76876 -3.4339,4.11276 -4.6714,5.20889 -2.605,2.30741 -2.9755,4.12466 -0.6598,3.23602 0.8747,-0.33562 2.0009,-0.35646 2.5027,-0.0463 1.5256,0.94287 -0.8439,4.16324 -3.5659,4.84643 -1.4332,0.35969 -3.59,2.31976 -4.9859,4.53097 -1.353,2.14337 -2.9283,4.18642 -3.5006,4.54012 -1.853,1.14525 -1.104,4.25343 1.4243,5.91003 2.9972,1.96383 4.9311,2.08911 4.2347,0.27433 -0.283,-0.73738 -0.1198,-1.97488 0.3625,-2.75 0.7161,-1.15077 1.247,-1.18 2.8939,-0.15932 2.869,1.77803 2.9024,1.74275 3.2393,-3.42183 0.1762,-2.70154 0.8502,-4.85145 1.598,-5.09773 0.9774,-0.32189 1.195,0.81944 0.891,4.67357 -0.4123,5.22837 0.4779,7.3526 3.5237,8.40873 1.5344,0.53203 1.6463,-0.0685 1.1008,-5.91002 -0.4921,-5.26909 -0.3419,-6.44537 0.792,-6.20247 0.7696,0.16486 1.2868,-0.26275 1.1493,-0.95025 -0.3652,-1.82585 2.4282,-1.53097 3.143,0.33179 0.3338,0.86998 0.607,2.78095 0.607,4.24659 0,3.49555 4.9507,18.32013 5.9183,17.7221 0.4122,-0.25477 -0.013,-3.52036 -0.9449,-7.25685 -2.1621,-8.66884 -3.1454,-17.29363 -1.9716,-17.29363 0.4992,0 1.1825,1.6875 1.5185,3.75 0.5294,3.24947 2.5128,10.66072 4.059,15.16722 0.3047,0.88805 0.8385,1.06499 1.4296,0.47388 0.5911,-0.59111 0.2559,-3.21378 -0.8978,-7.0241 -1.0126,-3.34442 -2.1618,-8.21932 -2.5538,-10.8331 -1.1978,-7.9879 1.622,-4.98629 4.4427,4.72905 4.0175,13.83772 5.5438,12.75344 2.1297,-1.51295 -1.0201,-4.2625 -1.5216,-7.75 -1.1146,-7.75 1.2507,0 2.6662,2.31445 3.9754,6.5 1.2915,4.1292 3.727,7.7683 2.677,4 -0.9739,-3.49521 -1.1227,-10.45941 -0.2294,-10.73475 1.1269,-0.34732 2.8689,4.80369 5.0704,14.9927 0.9794,4.53313 2.2176,8.24205 2.7514,8.24205 1.3294,0 0.019,-9.84494 -2.2102,-16.60122 -1.8875,-5.72159 -1.1794,-7.05258 1.5423,-2.89878 1.5635,2.38625 4.2716,3.70639 2.8351,1.38205 -0.38,-0.61487 -1.0342,-2.63987 -1.4537,-4.5 -0.9718,-4.30884 0.3939,-4.38757 4.6445,-0.26775 l 3.2132,3.1143 -0.5545,-6.1143 c -0.4676,-5.15714 -0.3052,-6.1143 1.0374,-6.1143 0.8755,0 3.0383,1.8 4.8062,4 3.9668,4.93614 5.3174,5.08379 4.5735,0.5 -0.7835,-4.82819 1.4911,-4.64457 6.1937,0.5 2.011,2.2 3.984,4 4.3845,4 0.4004,0 0.7281,-1.77344 0.7281,-3.94098 0,-2.16754 0.4302,-4.20688 0.9561,-4.53187 1.5914,-0.98358 4.2635,4.20365 4.7583,9.23728 0.2561,2.60456 1.1175,6.53557 1.9143,8.73557 0.7968,2.2 1.5438,7.93356 1.66,12.74124 0.1162,4.80768 0.5307,8.74518 0.9212,8.75 0.3904,0.005 1.2128,-1.67874 1.8276,-3.74124 z m -93.5825,0.5 c -0.8058,-2.66702 -2.201,-4.33735 -2.9758,-3.56256 -0.762,0.76202 1.6263,5.81256 2.7487,5.81256 0.4988,0 0.601,-1.0125 0.2271,-2.25 z m 2.516,-27.71094 c 0.8091,-0.51167 1.211,-1.19037 0.8932,-1.50823 -0.7878,-0.78775 -3.8642,0.46709 -3.8642,1.57616 0,1.13978 1.1012,1.11461 2.971,-0.0679 z m -2.9816,-13.28906 c -0.015,-1.77782 -6.6873,-9.76671 -11.9894,-14.35545 -2.475,-2.142 -4.8402,-4.42188 -5.256,-5.0664 -1.2239,-1.89725 -6.3987,-2.58678 -8.9354,-1.1906 -1.2697,0.69888 -4.3285,1.51634 -6.7972,1.81657 -3.3605,0.40869 -4.5798,1.02272 -4.8517,2.44323 -0.3181,1.66215 0.086,1.82444 3.2612,1.3092 3.3061,-0.53651 13.3757,0.54895 17.9396,1.93383 2.9658,0.89992 9.6395,7.41695 9.6395,9.41311 0,1.5224 -0.5736,1.72769 -3.5,1.2528 -4.2214,-0.68504 -4.7423,1.07331 -0.75,2.53143 4.0592,1.48254 11.2522,1.4264 11.2394,-0.0877 z m 16.8189,-4.825 c -0.1971,-0.59125 -0.7858,-1.075 -1.3083,-1.075 -0.5225,0 -1.1113,0.48375 -1.3083,1.075 -0.1971,0.59125 0.3916,1.075 1.3083,1.075 0.9167,0 1.5054,-0.48375 1.3083,-1.075 z m 50.4122,-8.78081 c 0.3963,-0.37689 -0.324,-1.9953 -1.6008,-3.59647 l -2.3213,-2.9112 -4.1312,3.43174 c -2.2721,1.88746 -4.1393,3.82109 -4.1492,4.29696 -0.02,0.96569 11.0701,-0.14405 12.2025,-1.22103 z m -67.2205,-3.58517 c 0,-0.79254 -0.45,-1.7191 -1,-2.05902 -1.4669,-0.90661 -1.2203,-4.5 0.3089,-4.5 0.7198,0 2.1823,0.66069 3.25,1.4682 4.207,3.18207 6.9884,1.15994 3.9413,-2.86552 -0.7899,-1.04353 -1.2305,-2.23004 -0.9792,-2.63669 0.9176,-1.48463 -2.4375,-3.04799 -7.6651,-3.57175 l -5.3559,-0.53662 2.4101,2.11111 c 1.8921,1.65742 2.1483,2.37116 1.1919,3.32119 -0.954,0.94766 -2.29,0.61371 -6.1606,-1.53992 -5.7537,-3.20136 -7.9935,-3.57008 -5.5964,-0.92126 2.1526,2.3786 2.1098,3.57515 -0.095,2.65444 -2.5185,-1.05171 -7.25,-1.29903 -7.25,-0.37895 0,0.43048 1.35,1.58016 3,2.55484 1.65,0.97468 3,2.07589 3,2.44713 0,0.61775 4.6218,1.65827 9.4643,2.13073 1.0803,0.1054 2.7678,0.99521 3.75,1.97736 2.1566,2.15657 3.7857,2.30492 3.7857,0.34473 z m 59,-3.10791 c 0,-1.69996 -7.2376,-5.39421 -10.6365,-5.42915 -1.6161,-0.0166 -2.2438,0.70874 -2.5768,2.97804 -0.4694,3.19808 1.7517,4.3664 2.8517,1.5 0.7843,-2.04391 2.6802,-1.88305 5.5008,0.46673 2.858,2.38094 4.8608,2.58052 4.8608,0.48438 z m -41.8988,-10.16343 c -0.9606,-1.65061 -1.0427,-1.62794 -1.0708,0.29565 -0.034,2.31486 1.2352,4.11979 1.7695,2.51685 0.1879,-0.56366 -0.1265,-1.82928 -0.6987,-2.8125 z"
         style="fill:#e7ce18" />
      <path
         id="path7973"
         d="m -1812.5146,-350.56087 c 0.4649,-2.43216 -3.897,-17.9267 -6.3224,-22.45862 -2.1143,-3.95073 -3.2516,-2.07708 -2.5887,4.26497 0.3546,3.39295 0.3451,5.86934 -0.021,5.50309 -1.0141,-1.01405 -4.3388,-10.85963 -4.3388,-12.84852 0,-0.96426 -1.0125,-2.27224 -2.25,-2.90662 -1.2375,-0.63438 -3.8799,-2.71031 -5.872,-4.61318 -2.5238,-2.41068 -4.8812,-3.62863 -7.7744,-4.0167 -2.2838,-0.30632 -4.393,-0.94623 -4.687,-1.42201 -0.9859,-1.59518 -2.1343,-0.88937 -4.6943,2.88494 -4.6377,6.83768 -7.543,9.25 -11.1403,9.25 -4.9246,0 -5.974,-1.89936 -5.262,-9.524 0.3539,-3.78929 0.2161,-6.476 -0.332,-6.476 -1.0932,0 -3.988,5.27225 -3.988,7.26325 0,1.59362 -4.4536,5.9528 -7.8943,7.72699 -1.9057,0.98264 -3.1775,0.97616 -6.2315,-0.0318 -4.4722,-1.47597 -4.7361,-2.08845 -5.0434,-11.70848 -0.1274,-3.9875 -0.479,-7.23578 -0.7812,-7.21839 -0.3023,0.0174 -1.7179,1.95908 -3.1459,4.31489 -1.5546,2.56477 -4.4908,5.39354 -7.3182,7.05053 l -4.722,2.76726 -3.3053,-2.26483 c -3.9928,-2.73589 -6.3737,-6.12762 -4.6944,-6.68738 0.6249,-0.20827 1.1362,-1.36814 1.1362,-2.57744 0,-1.20931 0.6381,-4.65871 1.418,-7.66533 0.7799,-3.00662 1.2745,-5.61006 1.0992,-5.78543 -0.1754,-0.17538 -1.5425,1.92928 -3.038,4.67701 -1.7162,3.15333 -3.7882,5.43873 -5.618,6.19665 -3.4262,1.41915 -10.7959,0.66122 -11.9761,-1.23167 -1.5064,-2.4159 -2.1071,-9.5426 -0.9815,-11.64572 0.603,-1.12674 1.0964,-3.90056 1.0964,-6.16403 0,-2.26347 0.7066,-5.48185 1.5703,-7.15197 1.6415,-3.17447 4.1307,-13.23936 5.1364,-20.76933 0.5709,-4.27398 0.517,-4.38498 -1.8092,-3.72592 -6.8881,1.9516 -7.5916,1.90703 -8.242,-0.52224 -0.3455,-1.29064 -0.6343,-3.59568 -0.6419,-5.1223 l -0.014,-2.77568 -3.25,1.66435 c -1.7875,0.91539 -4.7282,2.95195 -6.5348,4.52568 -1.8066,1.57373 -3.9441,2.86133 -4.75,2.86133 -0.8059,0 -1.4652,0.8428 -1.4652,1.87288 0,1.90473 -3.1383,9.30702 -5.1898,12.2412 -0.6207,0.88774 -0.8009,2.46274 -0.4006,3.5 0.7603,1.96965 1.3415,1.2377 6.7939,-8.55463 0.9369,-1.6827 2.1744,-3.05945 2.75,-3.05945 1.4005,0 1.338,7.56877 -0.085,10.31574 -2.3218,4.4814 -7.2314,11.68426 -7.9641,11.68426 -0.9358,0 -5.9042,10.34132 -5.9042,12.28914 0,0.77714 -1.125,3.52882 -2.5,6.11484 -1.375,2.58601 -2.5,5.32794 -2.5,6.09317 0,2.18265 -4.5245,6.91478 -5.8362,6.10408 -0.6401,-0.3956 -1.1638,-1.80198 -1.1638,-3.1253 0,-3.17879 2.8456,-11.5653 4.5961,-13.54565 1.9734,-2.23244 5.3861,-12.60379 5.3656,-16.30629 -0.01,-1.71819 -0.024,-5.22525 -0.031,-7.79345 -0.01,-2.56821 -0.1676,-5.49321 -0.3552,-6.5 -0.1876,-1.0068 -0.6669,-4.30554 -1.0651,-7.33054 -0.3982,-3.025 -1.4019,-8.18536 -2.2305,-11.46747 -1.9599,-7.7631 -1.1833,-13.84134 2.7765,-21.73147 2.5172,-5.01568 3.1511,-7.50372 3.1076,-12.19661 -0.061,-6.58013 -0.9523,-8.12367 -4.1118,-7.1209 -1.9058,0.60487 -2.0764,1.16957 -1.505,4.98007 1.0997,7.33348 -3.306,24.17722 -5.6982,21.78503 -1.733,-1.733 -2.2336,-14.40843 -0.8572,-21.70321 1.1864,-6.28752 1.1308,-6.83895 -1.1162,-11.07452 -1.9898,-3.75096 -2.1674,-4.77345 -1.1199,-6.45065 1.3286,-2.12748 1.7537,-15.02607 0.4947,-15.01172 -0.4125,0.005 -1.5648,2.62352 -2.5607,5.8196 -1.5848,5.08599 -1.662,6.66492 -0.619,12.6544 1.9882,11.41663 0.1896,18.37285 -7.8246,30.26356 -3.6157,5.36464 -7.8501,11.23205 -9.4098,13.03869 -1.5598,1.80663 -2.8359,3.8719 -2.8359,4.58948 0,0.71758 -1.134,1.82139 -2.5201,2.45291 -1.386,0.63153 -2.9272,2.16626 -3.4249,3.41052 -0.4976,1.24426 -3.3011,5.05177 -6.2299,8.46113 -2.9288,3.40937 -7.507,9.56728 -10.1737,13.68425 -5.6758,8.76238 -6.9088,9.96531 -11.8356,11.54631 -3.648,1.17064 -7.8158,6.32144 -7.8158,9.65914 0,0.81083 -0.769,1.76934 -1.709,2.13002 -2.4011,0.9214 -5.8699,5.11482 -7.8843,9.53144 -0.9408,2.0625 -2.1484,3.75 -2.6836,3.75 -1.4981,0 -0.018,-5.76651 3.3009,-12.86227 1.6368,-3.49925 2.976,-7.21175 2.976,-8.25 0,-1.30871 0.7127,-1.88773 2.3236,-1.88773 2.3785,0 13.2185,-11.03616 16.5813,-16.88138 5.9316,-10.31027 11.0229,-17.91013 16.8927,-25.21599 3.7131,-4.62145 8.4659,-10.76513 10.5619,-13.65263 2.096,-2.8875 4.1922,-5.25 4.6583,-5.25 0.4661,0 1.1533,-1.0125 1.5272,-2.25 0.3738,-1.2375 1.7028,-3.375 2.9532,-4.75 3.3857,-3.72299 5.5137,-8.48818 6.0185,-13.47701 0.3915,-3.86956 0.2248,-4.37678 -1.2834,-3.90358 -1.6281,0.51085 -1.6271,0.45634 0.017,-0.89802 2.0324,-1.67452 2.197,-3.84332 0.6223,-8.19816 -0.8949,-2.47475 -0.7766,-4.55436 0.5731,-10.071 0.9355,-3.82372 1.9517,-8.07723 2.2583,-9.45223 0.3066,-1.375 1.11,-3.175 1.7853,-4 3.8073,-4.65128 4.4259,-12.82277 1.3982,-18.4717 -1.8926,-3.53112 -1.9941,-4.47268 -0.9738,-9.03172 1.0378,-4.6372 0.6198,-21.7536 -0.5799,-23.74658 -0.8143,-1.35282 -2.3334,-0.78484 -2.3334,0.87244 0,1.16835 -0.3499,1.34061 -1.25,0.61548 -0.6875,-0.55384 -2.6892,-1.31457 -4.4482,-1.69051 -1.7589,-0.37595 -4.8359,-1.98512 -6.8377,-3.57594 -6.076,-4.82857 -6.958,-4.74861 -12.2426,1.10988 -2.5968,2.87882 -5.235,5.95676 -5.8625,6.83987 -1.6981,2.38952 -4.359,11.97437 -4.359,15.70126 0,1.79272 -0.5118,3.57576 -1.1372,3.96232 -1.5989,0.98819 -4.8138,-3.53303 -4.8406,-6.80746 -0.024,-2.88922 4.3068,-13.08813 6.8077,-16.03347 2.2884,-2.69503 0.62,-3.25049 -3.7901,-1.26183 -5.1924,2.34147 -6.4484,3.84358 -9.0611,10.8368 -1.1956,3.20036 -2.6925,5.9778 -3.3263,6.17209 -4.3145,1.32254 -8.4484,1.3787 -10.1454,0.13783 -1.7595,-1.28654 -1.7821,-1.55995 -0.3146,-3.79966 1.4145,-2.15882 1.4233,-2.71496 0.083,-5.27266 -1.0238,-1.95391 -1.3494,-4.63202 -1.0285,-8.45786 0.5527,-6.59059 -0.4089,-9.30851 -5.0431,-14.25408 -1.8839,-2.01053 -3.938,-4.56321 -4.5646,-5.67262 -0.6267,-1.10941 -3.0519,-4.80322 -5.3894,-8.20845 -2.9784,-4.33886 -4.25,-7.22156 -4.25,-9.63456 0,-4.96174 2.0381,-12.32887 3.4107,-12.32887 1.4322,0 13.007,-11.91562 12.2805,-12.64212 -0.2847,-0.28473 -1.6463,0.22181 -3.0257,1.12564 -3.4477,2.25899 -15.42,2.79898 -21.4547,0.96768 -8.9609,-2.7193 -12.8356,-1.12568 -4.9608,2.04031 2.3375,0.93976 6.8996,1.73678 10.1379,1.77115 5.1684,0.0548 5.6644,0.22592 4.0589,1.39992 -2.3307,1.70425 -4.9321,1.6344 -9.9468,-0.26708 -2.2,-0.83419 -5.4138,-1.94714 -7.1418,-2.47323 -1.7279,-0.52608 -3.6619,-1.58333 -4.2978,-2.34944 -0.9348,-1.12635 -0.5636,-1.52304 1.9396,-2.07283 2.5217,-0.55386 2.8786,-0.9413 1.9253,-2.08995 -0.6436,-0.77553 -1.4591,-1.41005 -1.8122,-1.41005 -0.3531,0 -3.4528,2.27431 -6.8882,5.05402 -5.314,4.29975 -6.3451,4.79621 -6.9091,3.32657 -0.7911,-2.06147 4.3818,-6.78018 9.4364,-8.60796 4.0714,-1.47223 3.6387,-3.36365 -0.6883,-3.00834 -4.1318,0.33928 -8.0719,2.39758 -11.8809,6.20651 -3.3431,3.3431 -4.4188,3.80717 -3.5446,1.5292 0.9855,-2.56818 -1.012,-1.65284 -4.3644,2 -1.7667,1.925 -3.8324,3.5 -4.5903,3.5 -0.7579,0 -1.8664,1.0125 -2.4632,2.25 -2.2432,4.65124 -1.2596,-1.53938 1.1916,-7.5 1.86,-4.52298 2.0617,-5.75 0.9449,-5.75 -0.7809,0 -1.6618,0.63066 -1.9576,1.40146 -0.2957,0.7708 -1.3224,1.60665 -2.2815,1.85745 -1.8336,0.4795 -6.682,9.44332 -7.4571,13.7869 -0.2499,1.4002 -1.4244,5.6752 -2.61,9.5 -5.3741,17.33683 -5.6325,34.50017 -0.6844,45.45515 1.3661,3.02447 2.7897,8.04874 3.1635,11.16504 0.6332,5.2792 0.3742,6.33732 -3.7935,15.5 -4.2322,9.30435 -6.8038,16.4134 -8.1608,22.56045 -0.5234,2.37105 0.2145,3.50879 5.6613,8.72821 3.4447,3.30097 6.7731,6.01157 7.3965,6.02355 0.6233,0.012 1.3958,-0.98179 1.7165,-2.20838 0.6138,-2.34694 -3.5251,-7.76983 -5.93,-7.76983 -2.5352,0 -2.4108,-3.05295 0.1643,-4.03201 3.5316,-1.34271 3.7682,-1.2862 6.4158,1.53201 1.2917,1.375 3.0003,2.5 3.7968,2.5 1.184,0 1.2174,0.27795 0.1831,1.52417 -2.2244,2.68031 -0.1984,2.78522 2.4595,0.12735 3.7732,-3.77319 3.3382,-6.84061 -1.4394,-10.15152 -4.0815,-2.82851 -4.7469,-3.92033 -3.0343,-4.9788 1.2291,-0.75965 7.9849,2.65847 10.2881,5.2053 1.3976,1.54552 1.6212,2.93778 1.1008,6.85641 -0.5351,4.0296 -1.3781,5.59396 -4.6703,8.66722 -4.7724,4.45492 -4.366,5.64848 0.9923,2.91487 2.1287,-1.08598 6.0168,-2.29639 8.6402,-2.6898 2.6234,-0.3934 4.6261,-0.99876 4.4504,-1.34524 -0.1756,-0.34648 -1.1558,-2.26998 -2.1782,-4.27444 -1.3007,-2.55034 -1.6358,-4.50175 -1.1162,-6.5 0.6745,-2.59343 0.8154,-2.67196 1.5357,-0.85552 1.8106,4.56587 8.2035,9.5 12.3086,9.5 3.0961,0 9.0847,3.41403 10.769,6.13929 0.8485,1.37295 -0.8984,6.86071 -2.1839,6.86071 -0.4962,0 -0.9022,0.675 -0.9022,1.5 0,0.98184 0.9828,1.5 2.845,1.5 6.6673,0 8.3941,7.63029 3.1917,14.10393 l -3.0897,3.84468 2.7765,0.66358 c 1.5271,0.36497 3.3778,1.13883 4.1127,1.71968 2.2713,1.7952 0.5264,6.86349 -3.5817,10.40325 -2.4516,2.1125 -3.194,3.24029 -2.1394,3.25 2.6875,0.0248 7.0178,4.0208 6.415,5.91987 -0.4477,1.41059 0.1058,1.68466 3.2146,1.59171 4.8741,-0.14574 6.8573,-1.29724 15.2457,-8.85228 10.5501,-9.50201 23.2792,-14.02398 28.4558,-10.10887 2.6583,2.01043 1.7178,2.71853 -9.8772,7.43639 -11.8137,4.80682 -18.1562,8.38822 -19.5858,11.05944 -0.5795,1.08274 -1.7825,1.96862 -2.6734,1.96862 -1.4802,0 -1.4772,0.15756 0.035,1.82874 0.9103,1.00581 1.655,2.13081 1.655,2.5 0,0.36919 -4.9641,0.67126 -11.0314,0.67126 -8.9244,0 -11.1422,0.28892 -11.6118,1.51273 -0.3193,0.83201 -0.139,2.06951 0.4005,2.75 0.5396,0.6805 1.2129,3.40279 1.4961,6.04954 0.6302,5.88868 3.781,9.68773 8.0348,9.68773 3.6677,0 10.1907,3.46816 14.4618,7.68909 2.7762,2.7435 3.2478,3.91155 3.2347,8.01134 -0.025,8 -1.3225,8.58962 -6.2414,2.83738 -8.4139,-9.83939 -10.2095,-11.43064 -13.2433,-11.73592 l -3,-0.30189 0.2185,13.31073 0.2185,13.31073 3.9398,4.47592 c 3.6267,4.12018 9.1232,15.47926 9.1232,18.85412 0,3.19029 2.4398,2.54016 6.8801,-1.83334 2.5787,-2.53999 5.0526,-4.61816 5.4975,-4.61816 0.4449,0 4.3847,-3.32195 8.7551,-7.38212 10.054,-9.34041 19.5039,-14.31738 24.6957,-13.00654 1.9359,0.48876 3.6774,1.37177 3.8702,1.96224 0.1928,0.59048 -3.3731,2.76931 -7.9241,4.84185 -4.5509,2.07255 -10.2995,5.39736 -12.7745,7.38848 -8.4078,6.76399 -23.4919,20.55527 -25.5,23.31443 -1.9761,2.71519 -8.277,6.43799 -9.2498,5.46514 -0.2763,-0.27623 0.6699,-2.74395 2.1025,-5.48381 l 2.6048,-4.98158 -3.5295,-7.80904 c -7.0038,-15.49604 -10.8457,-22.84735 -13.0286,-24.92963 -2.944,-2.80819 -4.0403,-11.44451 -2.4675,-19.4386 1.1668,-5.93066 1.1543,-5.99389 -2.0713,-10.48546 -2.6184,-3.64608 -3.2452,-5.47837 -3.2452,-9.48709 0,-2.73255 -0.1232,-4.96827 -0.2738,-4.96827 -0.5974,0 -7.8733,3.53505 -8.3416,4.05286 -0.275,0.30408 -2.1175,1.76658 -4.0944,3.25 -3.2103,2.40896 -4.4391,2.69339 -11.5,2.66201 -14.1994,-0.0631 -23.3391,-3.02941 -24.9474,-8.09675 -0.3462,-1.09049 -1.5239,-1.86812 -2.8292,-1.86812 -1.23,0 -4.5558,-1.15586 -7.3908,-2.56857 l -5.1544,-2.56857 -0.6765,-5.97979 c -0.6434,-5.68627 -0.8663,-6.07659 -4.5419,-7.95176 -4.3182,-2.20297 -4.7385,-3.90599 -2.3654,-9.58555 2.0476,-4.90049 1.8976,-8.61638 -0.4058,-10.05488 -1.0482,-0.65462 -2.4372,-2.80024 -3.0867,-4.76805 -1.0217,-3.09587 -0.908,-4.10117 0.8441,-7.46263 2.7822,-5.3378 3.4536,-9.76222 2.2756,-14.99653 -0.7703,-3.42301 -0.671,-5.13611 0.4349,-7.5 2.0683,-4.42142 11.0141,-16.29956 17.6879,-23.48601 6.0028,-6.46385 6.6685,-7.78798 4.3605,-8.67363 -0.7797,-0.2992 -1.1758,-1.35047 -0.9025,-2.3955 0.3465,-1.32492 -0.5475,-2.53265 -3.0981,-4.18542 -1.9718,-1.27771 -3.5907,-2.66061 -3.5975,-3.07311 -0.01,-0.4125 2.0126,-0.75 4.4876,-0.75 5.435,0 5.504,-0.41567 1.6022,-9.64529 -3.2584,-7.7074 -4.4621,-20.11845 -2.9927,-30.85471 3.058,-22.3433 7.4784,-35.36284 11.4845,-33.82557 0.7733,0.29675 1.406,0.0414 1.406,-0.56744 0,-0.60885 -0.4342,-1.10699 -0.9648,-1.10699 -4.5452,0 -1.4314,-14.07326 5.0599,-22.86895 2.2857,-3.09708 5.4265,-6.98105 6.9797,-8.63105 1.5531,-1.65 4.5084,-4.9505 6.5672,-7.33445 2.2761,-2.63553 6.5095,-5.73649 10.8007,-7.91149 5.9944,-3.03832 8.1115,-3.59038 14.0573,-3.66555 4.9986,-0.0632 7.523,-0.55973 8.8292,-1.73664 2.3153,-2.08608 7.3672,-2.85366 10.8321,-1.6458 1.9713,0.68722 3.5028,0.50187 5.8401,-0.70682 2.0532,-1.06174 5.5935,-1.63063 10.0597,-1.61652 4.8561,0.0154 7.3405,-0.42717 8.4116,-1.49826 1.1546,-1.15462 3.384,-1.45227 9.2737,-1.23813 4.2645,0.15505 8.5411,-0.0876 9.5036,-0.53921 1.1822,-0.5547 1.75,-0.40638 1.75,0.45714 0,0.70304 0.7118,2.06474 1.5817,3.02601 0.8699,0.96128 2.1569,5.27171 2.8599,9.57875 0.703,4.30703 1.5124,7.15597 1.7986,6.33097 2.3828,-6.86932 2.6607,-9.50229 1.2327,-11.68164 -1.8074,-2.7585 -1.8823,-4.31836 -0.2073,-4.31836 1.8353,0 8.2317,3.58111 8.2497,4.6187 0.033,1.88318 1.6995,3.3827 3.7937,3.4131 1.2051,0.0175 3.0822,0.70546 4.1715,1.52882 1.2235,0.9248 3.0083,1.27129 4.6693,0.90648 2.0784,-0.45649 4.1826,0.38468 9.2695,3.70558 3.6194,2.36287 6.5807,4.86564 6.5807,5.56172 0,0.69608 0.45,1.2656 1,1.2656 0.55,0 1,0.675 1,1.5 0,0.825 0.473,1.5 1.051,1.5 0.5781,0 1.7091,1.575 2.5134,3.5 1.1085,2.65291 2.0568,3.5 3.9183,3.5 1.8744,0 3.351,1.34223 6.2366,5.66894 6.0793,9.11559 6.9817,11.16291 7.1978,16.33106 0.081,1.925 0.5568,3.64157 1.0585,3.81461 0.5016,0.17303 0.6467,1.00595 0.3225,1.85092 -0.3242,0.84498 -0.1733,1.8284 0.3355,2.18539 1.545,1.08406 4.5244,14.45631 4.5792,20.55215 l 0.051,5.72808 4.1178,-0.63862 c 6.5557,-1.01669 7.3839,-1.42391 8.0157,-3.9411 0.8529,-3.39836 8.9213,-8.91886 17.2537,-11.8052 5.0359,-1.74444 10.0606,-4.66177 16.9856,-9.86175 13.9604,-10.48293 20.5986,-15.93985 17.3629,-14.2732 -1.2915,0.66523 -1.3092,0.53742 -0.1276,-0.91932 0.7549,-0.93058 2.3299,-1.69633 3.5,-1.70167 1.1702,-0.005 4.0237,-1.51727 6.3412,-3.35985 2.3175,-1.84259 6.255,-3.9217 8.75,-4.62026 2.495,-0.69855 4.5364,-1.69738 4.5364,-2.2196 0,-0.53873 1.406,-0.66652 3.25,-0.29538 6.247,1.25731 6.5245,1.44772 6.244,4.28457 -0.5315,5.37675 -1.6625,6.78563 -8.1449,10.14659 -3.5963,1.86464 -8.3908,4.9375 -10.6542,6.82858 -6.9951,5.84421 -12.624,9.36588 -18.9033,11.82672 -7.2647,2.84703 -12.7916,6.86828 -12.7916,9.30693 0,1.45271 -2.0044,2.24354 -10.72,4.22951 l -10.7199,2.4427 5.4699,3.08917 c 3.0085,1.69904 7.7861,5.17286 10.6169,7.7196 2.8308,2.54674 5.4183,4.63043 5.75,4.63043 0.3317,0 0.6031,-1.54844 0.6031,-3.44098 0,-1.89254 0.4483,-3.71808 0.9963,-4.05675 0.6383,-0.3945 0.5221,-1.58357 -0.3234,-3.30902 -2.0339,-4.15063 -1.1471,-5.85423 3.1195,-5.99273 2.0392,-0.0662 5.8536,-0.40678 8.4765,-0.75687 l 4.7689,-0.63653 -3.0189,-3.43836 c -3.3635,-3.83082 -3.6278,-4.90277 -1.6871,-6.84345 1.1091,-1.10912 2.1543,-1.0505 6.25,0.35049 8.529,2.91746 12.8223,5.51348 15.0896,9.1242 1.2088,1.925 2.8244,4.20969 3.5903,5.07709 1.4118,1.59903 4.6469,7.95268 6.8344,13.42291 l 1.1997,3 0.916,-4.27544 c 0.8353,-3.89903 0.6611,-4.60336 -1.9787,-8 -4.4367,-5.70876 -6.1699,-11.12125 -5.8248,-18.18977 0.3445,-7.05413 1.4769,-8.58062 8.5917,-11.58155 2.475,-1.04392 4.725,-2.19142 5,-2.55001 0.8364,-1.09066 6.4333,-1.94929 7.5057,-1.15146 2.5237,1.8776 6.4943,8.35349 6.4943,10.59187 0,1.9614 -1.4022,3.38049 -6.7356,6.81672 -3.7045,2.3868 -7.1604,4.64117 -7.6796,5.0097 -0.5323,0.37773 0.1603,2.1228 1.5873,4 3.7277,4.9035 5.6947,9.11038 6.9106,14.77997 1.1205,5.22489 1.7125,5.85481 3.6659,3.90132 0.8649,-0.86487 1.8047,-0.71884 3.8039,0.59109 2.5191,1.6506 2.6197,2.0297 1.9633,7.39865 -0.97,7.93287 -3.3702,17.97668 -5.0915,21.30531 -0.8001,1.54723 -3.4744,5.29274 -5.9429,8.32335 -2.4684,3.03061 -4.4139,5.85221 -4.3233,6.27022 0.3589,1.65489 -2.1707,6.19639 -3.9952,7.17285 -1.0631,0.56893 -2.2182,2.17129 -2.5669,3.5608 -0.3488,1.38951 -1.2287,2.52638 -1.9553,2.52638 -1.9158,0 -12.8412,5.60648 -15.1904,7.79507 -1.1009,1.02567 -3.3401,2.71261 -4.976,3.74875 -1.6359,1.03615 -4.7743,3.30576 -6.9743,5.04359 -7.7862,6.15047 -22.2482,14.41259 -25.2278,14.41259 -1.8588,0 -3.8065,0.94598 -5.3479,2.59732 -4.435,4.75152 -12.2467,7.87701 -27.4243,10.97261 -3.85,0.78524 -9.1375,1.42824 -11.75,1.42889 -5.2598,10e-4 -5.3928,0.21849 -3.2599,5.32316 0.8195,1.96142 1.2591,4.16802 0.9768,4.90355 -0.9094,2.37 12.2523,12.69182 14.4435,11.32702 0.3243,-0.20199 1.4659,-2.63244 2.5369,-5.40101 2.5421,-6.57142 5.4824,-7.55241 9.9478,-3.31898 5.1981,4.92794 9.2728,6.5028 14.5206,5.61217 6.7475,-1.14513 27.4988,-0.53411 27.982,0.82393 0.2188,0.61474 1.3438,2.06373 2.5,3.21998 2.3384,2.33838 2.6023,2.84657 2.6023,5.01136 0,3.19736 1.8023,1.27347 3.0446,-3.25 0.7475,-2.72188 2.7244,-6.23196 4.63,-8.22084 3.1021,-3.23781 3.3254,-3.92824 3.3254,-10.28325 0,-7.31042 2.6662,-14.33232 6.8919,-18.1509 1.6374,-1.47965 2.1081,-3.08385 2.1081,-7.1849 0,-2.90395 0.5136,-6.54671 1.1414,-8.09501 1.1823,-2.91579 1.378,-3.63977 2.4416,-9.03293 0.349,-1.76981 1.2606,-3.73741 2.0258,-4.37245 0.7651,-0.63503 1.3912,-1.59464 1.3912,-2.13245 0,-0.53781 2.0767,-3.07021 4.615,-5.62755 2.5382,-2.55735 5.7734,-6.22472 7.1893,-8.14972 4.1441,-5.63407 9.4879,-11.05576 12.4074,-12.58828 2.4596,-1.29112 2.8051,-1.24885 3.7168,0.45469 1.1626,2.17231 0.3953,5.27806 -3.1825,12.88174 -2.9492,6.26788 -2.6493,10.25185 0.7718,10.25185 1.554,0 2.9496,1.12701 4.3638,3.52384 1.1435,1.93811 2.8754,3.81779 3.8487,4.17706 2.01,0.74192 3.2319,2.24219 3.2544,3.99565 0.01,0.6581 -2.4597,2.83935 -5.4847,4.84723 -6.6971,4.44531 -7.3725,7.01126 -1.6026,6.08861 3.335,-0.53328 4.5906,-0.14559 8.6999,2.68625 7.39,5.09271 9.6706,10.57744 6.9865,16.8026 -0.521,1.20849 0.4467,2.29261 3.8011,4.25843 2.475,1.45046 8.3509,6.28239 13.0576,10.73762 l 8.5575,8.10043 0,7.98723 c 0,4.39298 0.714,10.4434 1.5867,13.44539 1.3299,4.5745 1.3901,6.27793 0.372,10.52184 -0.7098,2.95866 -2.206,5.92554 -3.5991,7.13688 -4.4875,3.9018 -8.3565,12.16598 -8.3923,17.92579 -0.063,10.15907 -1.6881,18.7506 -4.2714,22.58379 -1.3645,2.02475 -3.0418,5.48136 -3.7272,7.68136 -0.6855,2.2 -2.0016,5.125 -2.9247,6.5 -0.9231,1.375 -2.277,5.65 -3.0088,9.5 -1.4329,7.53936 -4.2733,17.08214 -6.5931,22.15113 -0.7932,1.73312 -1.4421,3.64562 -1.4421,4.25 0,0.60438 -0.5025,1.09887 -1.1166,1.09887 -0.6673,0 -0.9137,-1.0612 -0.6124,-2.63735 z m -69.8358,-32.25787 c 0.3043,-0.49236 -0.075,-1.13636 -0.8432,-1.43109 -1.4663,-0.56267 -2.592,0.0857 -2.592,1.49298 0,1.11676 2.7373,1.06745 3.4352,-0.0619 z m 62.3648,-3.30478 c 0.66,-0.66 1.2,-1.99614 1.2,-2.96921 0,-0.97306 0.8539,-3.47056 1.8976,-5.55 2.4591,-4.89927 3.6264,-20.28079 1.5392,-20.28079 -0.7557,0 -1.1448,-0.5974 -0.8646,-1.32755 0.2802,-0.73015 0.01,-2.64265 -0.6017,-4.25 -0.6111,-1.60735 -1.05,-3.14745 -0.9752,-3.42245 0.2741,-1.00859 3.5623,0.22667 5.5789,2.0958 2.405,2.22915 3.4314,1.62383 3.4121,-2.01247 -0.034,-6.37537 -1.1709,-7.56361 -9.676,-10.1095 -2.3043,-0.68977 -5.6551,-2.76606 -7.4461,-4.61398 -3.0509,-3.14764 -5.8642,-4.37574 -5.8642,-2.55986 0,0.44 2.6771,4.698 5.9491,9.46223 6.27,9.1293 7.7548,13.85444 7.9803,25.39524 0.1316,6.73721 -4.81,18.26113 -6.6618,15.53528 -0.9658,-1.4216 -1.1594,-1.44807 -1.2088,-0.16525 -0.066,1.70778 2.6462,5.97251 3.7979,5.97251 0.4088,0 1.2833,-0.54 1.9433,-1.2 z m -52.8702,-13.73046 c 1.6886,-5.43518 3.0702,-10.59931 3.0702,-11.47584 0,-0.87654 0.473,-1.5937 1.051,-1.5937 0.5781,0 1.6954,-1.54225 2.483,-3.42722 0.7876,-1.88497 2.3483,-3.71802 3.4681,-4.07345 1.1198,-0.35542 4.2614,-3.87567 6.9812,-7.82278 6.2887,-9.12651 9.7547,-12.95648 11.0185,-12.17542 1.4305,0.88407 1.2323,-0.72454 -0.5226,-4.24227 -1.8783,-3.76518 -2.9574,-4.64277 -7.8326,-6.37014 -2.9639,-1.05013 -4.1981,-2.22668 -5.3465,-5.09665 -2.1059,-5.26321 -9.3637,-9.98094 -14.6036,-9.49259 -2.1276,0.1983 -4.1672,0.77453 -4.5324,1.28053 -0.8321,1.15267 -4.1671,3.30642 -6.2148,4.01355 -0.8529,0.29451 -2.1316,2.41895 -2.8415,4.72096 -0.7099,2.30202 -3.7307,7.56048 -6.713,11.68548 -7.9989,11.06405 -14.2128,24.25055 -14.5888,30.95891 l -0.306,5.45892 3.3725,0.18023 c 3.8117,0.2037 5.2648,1.78711 4.8865,5.32482 -0.3891,3.64008 -2.759,3.86979 -2.759,0.26744 0,-3.25786 -1.4348,-4.29309 -4.4575,-3.21607 -1.4847,0.52901 -2.0292,1.79652 -2.2543,5.24743 l -0.2968,4.54994 4.5014,0.67502 c 2.4757,0.37127 4.8732,0.44521 5.3277,0.16432 0.9343,-0.57747 2.4419,-5.24293 4.6119,-14.27203 0.8793,-3.65872 2.4531,-7.13352 3.8749,-8.55536 1.6798,-1.67974 2.3362,-3.37082 2.1997,-5.66643 -0.1703,-2.8628 0.6049,-3.98174 6.1975,-8.94464 4.3107,-3.82533 7.537,-7.83328 9.9076,-12.30806 1.9334,-3.64955 4.6009,-7.65537 5.9277,-8.90182 l 2.4123,-2.26627 0.9104,2.40183 c 1.4491,3.82346 -2.9454,12.41916 -10.842,21.20676 -3.0804,3.42797 -7.9693,12.55589 -7.9989,14.93433 -0.012,0.9566 -0.9214,4.1066 -2.0211,7 -2.8836,7.58682 -2.6931,8.76073 1.4219,8.76073 3.0218,0 3.5571,0.40794 4.5724,3.4843 0.6325,1.91637 0.8567,4.50387 0.4982,5.75 -1.7809,6.19151 -1.7564,6.44656 0.384,3.99155 1.0905,-1.25079 3.3643,-6.72113 5.0528,-12.15631 z m 15.5255,12.07134 c 0.9132,-2.8773 -0.4268,-5.14088 -3.0432,-5.14088 -1.6835,0 -2.5523,0.71058 -2.9872,2.44316 -0.3373,1.34375 -0.3193,2.91875 0.04,3.5 1.1053,1.78845 5.3485,1.22016 5.9904,-0.80228 z m -23.4553,-5.14148 0,-5.9994 -3.5,0 c -3.5344,0 -3.7222,0.2523 -3.7222,5 0,6.29048 0.1111,6.49179 3.7242,6.7494 l 3.498,0.2494 0,-5.9994 z m -23.6198,1.99959 c 0.4968,-0.48501 -0.7217,-1.16003 -2.7966,-1.54928 -4.1396,-0.77659 -5.1178,-0.28414 -4.1978,2.11323 0.4732,1.23331 1.324,1.47852 3.3735,0.97237 1.5074,-0.37226 3.1368,-1.06361 3.6209,-1.53632 z m 52.635,-1.02733 c 0.597,-1.11559 1.2342,-3.6852 1.4159,-5.71025 0.2605,-2.90343 0.8655,-3.86027 2.8613,-4.52553 2.9337,-0.97792 5.7076,-6.14746 5.7076,-10.63701 0,-2.61111 0.3807,-3.09887 2.419,-3.09887 1.3304,0 3.8025,-0.7875 5.4936,-1.75 3.8809,-2.20883 4.216,-6.82637 0.7849,-10.81524 -2.1354,-2.48258 -2.6787,-2.62502 -7.4891,-1.96343 -4.3775,0.60207 -5.6337,1.28393 -8.0528,4.37101 -1.5764,2.01171 -3.4377,4.78266 -4.1363,6.15766 -0.6985,1.375 -2.9638,4.75 -5.034,7.5 -2.3732,3.15248 -4.1744,6.95808 -4.8747,10.29922 -1.5496,7.39377 -1.5327,7.45239 1.9304,6.69178 3.4659,-0.76124 5.959,0.75805 5.959,3.63144 0,2.47762 1.6527,2.39497 3.0152,-0.15078 z m 22.1229,-2.72166 c 4.3863,-5.30063 5.9392,-17.5997 2.6391,-20.90088 -1.6306,-1.63109 -1.8018,-1.53458 -3.196,1.8023 -0.9252,2.21425 -3.3434,4.7946 -6.5014,6.93712 -6.1932,4.20183 -6.6143,6.80853 -1.5798,9.77896 1.925,1.13578 3.5,2.53023 3.5,3.09877 0,1.67812 3.5684,1.18067 5.1381,-0.71627 z m -92.0976,-7.43806 c 4.0683,-3.00783 3.7109,-3.71037 -1.2905,-2.537 -7.3583,1.72629 -7.1101,1.58631 -5.7402,3.23689 1.7021,2.05092 3.5602,1.86595 7.0307,-0.69989 z m 0.3527,-6.24254 c 0.6581,-2.62199 -0.6068,-6.96532 -2.3405,-8.03681 -0.5888,-0.36393 -1.9666,-0.37731 -3.0617,-0.0298 -2.73,0.86648 -2.9325,9.10448 -0.241,9.80783 3.8292,1.00068 5.0495,0.62413 5.6432,-1.74127 z m 6.4908,-6.8194 c 0.5715,-1.7875 0.9576,-3.925 0.858,-4.75 -0.2163,-1.79043 7.0869,-17 8.1629,-17 0.4118,0 0.5614,-1.27614 0.3325,-2.83587 -0.328,-2.235 0.2546,-3.40036 2.7499,-5.5 1.7414,-1.46527 3.5029,-2.66413 3.9146,-2.66413 0.4116,0 2.5146,-2.4653 4.6732,-5.47843 2.1587,-3.01314 4.4032,-5.48814 4.9878,-5.5 1.3463,-0.0273 5.9492,-4.96677 6.7472,-7.24064 0.6212,-1.7699 -1.3821,-6.58938 -3.2081,-7.71791 -0.5662,-0.34988 -7.0059,-0.55429 -14.3106,-0.45423 -15.4817,0.21207 -17.9939,-0.62375 -24.6696,-8.20777 -2.7093,-3.07792 -4.1218,-4.10009 -4.1218,-2.98279 0,0.93489 -0.4508,1.42117 -1.0019,1.08061 -1.3193,-0.81538 -2.9981,3.72915 -2.9981,8.11592 0,4.6946 2.1123,8.46952 7.1538,12.78487 3.4025,2.91242 5.0204,3.60037 8.4672,3.60037 4.5466,0 6.2278,-1.27234 4.4738,-3.38581 -1.4508,-1.74803 -0.3762,-2.61419 3.2431,-2.61419 1.6525,0 3.8275,-0.74474 4.8334,-1.65499 4.0887,-3.70025 1.4215,0.57751 -4.1494,6.65499 -3.277,3.575 -6.2279,7.2875 -6.5574,8.25 -0.3296,0.9625 -0.9523,1.75 -1.3839,1.75 -1.4942,0 -7.1463,13.8198 -8.4496,20.65983 -0.72,3.77859 -1.7707,7.76342 -2.3349,8.85517 -1.2806,2.47798 -0.5688,4.94403 1.0511,3.6419 1.6256,-1.30662 5.1201,0.24488 7.3043,3.24303 2.4223,3.32483 2.9895,3.23773 4.2325,-0.64993 z m -11.7638,-60.75 c -1.2365,-2.2 -1.8175,-4 -1.2912,-4 0.5264,0 1.1987,0.6297 1.494,1.39934 0.2953,0.76964 2.164,1.93631 4.1526,2.5926 2.9437,0.9715 3.3985,1.45481 2.4475,2.60066 -2.0432,2.46202 -4.4851,1.53143 -6.8029,-2.5926 z m 70.2614,58.44806 c 0.3414,-0.88992 0.1738,-1.29132 -0.3931,-0.94098 -0.5437,0.33602 -0.9885,1.0344 -0.9885,1.55194 0,1.43843 0.7168,1.12146 1.3816,-0.61096 z m 52.5833,-30.69806 c -0.097,-3.45663 -3.8199,-14.19704 -5.0522,-14.57627 -0.777,-0.23909 -2.0877,-1.00929 -2.9127,-1.71156 -1.719,-1.4633 -7.4446,-1.41762 -8.9334,0.0713 -1.8906,1.89058 0.1145,5.24708 5.0418,8.43986 2.7135,1.75828 6.1616,4.48691 7.6626,6.06363 2.9789,3.12923 4.2482,3.64774 4.1939,1.71307 z m -294.9836,-1.59242 c 1.6662,-1.01332 5.0227,-3.7105 7.4587,-5.99372 2.683,-2.51472 5.0155,-3.92631 5.9164,-3.58058 2.2009,0.84455 5.6436,-1.36279 5.6436,-3.61846 0,-2.08916 -3.3599,-2.80954 -4.5,-0.96482 -0.3399,0.55 -1.154,0.98503 -1.809,0.96673 -1.5041,-0.042 3.126,-3.96892 4.6698,-3.96057 0.6265,0.003 2.3767,0.6517 3.8892,1.4407 2.9687,1.54861 3.0557,1.51347 2.143,-0.86507 -0.4275,-1.11407 -1.9212,-1.58179 -5.0515,-1.58179 -3.3272,0 -7.2859,1.36598 -15.7481,5.43396 -8.3613,4.01948 -12.9683,5.61768 -17.6986,6.13977 -3.5171,0.3882 -7.4852,1.11141 -8.818,1.60714 -4.1284,1.5356 -0.4788,3.60567 8.2529,4.68094 4.3063,0.53031 8.0938,1.22834 8.4166,1.55119 1.1173,1.11726 4.2182,0.57919 7.235,-1.25542 z m -30.6332,-11.65533 c 3.6848,-1.92179 8.0665,-2.23298 9.9091,-0.70374 1.881,1.56109 6.2032,0.72969 15.7428,-3.02823 17.7709,-7.00046 19.4695,-8.02449 17.9672,-10.8316 -0.885,-1.65356 -0.5603,-2.49944 1.9061,-4.96587 3.1581,-3.15807 5.068,-3.60978 8.1924,-1.93763 1.2661,0.67757 1.9343,0.68973 1.9343,0.0352 0,-1.52303 -3.5046,-3.07038 -6.9541,-3.07038 -1.6971,0 -4.8806,1.1331 -7.0744,2.518 -2.1938,1.38489 -6.2933,3.42635 -9.1099,4.53656 -2.8166,1.11021 -7.7613,3.32848 -10.9882,4.92949 -5.8124,2.88387 -5.9494,2.90079 -14.7295,1.81973 -9.6248,-1.18505 -12.3345,-0.8292 -16.1182,2.1167 -2.433,1.89433 -2.4429,1.96104 -0.595,4.00298 1.0635,1.1751 3.1143,2.07654 4.7243,2.07654 1.5647,0 2.845,0.45 2.845,1 0,0.55 -0.9266,1 -2.059,1 -1.1325,0 -1.7809,0.45 -1.441,1 0.8552,1.38378 2.5107,1.24287 5.8481,-0.49775 z m 314.1791,-8.54623 c 0.7432,-1.20253 -2.0903,-5.95602 -3.5503,-5.95602 -1.0929,0 -1.2977,3.00035 -0.3699,5.41821 0.6885,1.79416 2.9518,2.10467 3.9202,0.53781 z m -34.2725,-3.55567 c -0.2946,-1.08101 -5.8601,-2.63288 -7.9066,-2.2046 -2.6046,0.5451 -1.9201,2.26977 1.1519,2.90245 3.8411,0.79105 7.0695,0.45751 6.7547,-0.69785 z m -230.1591,-4.46844 c 3.2779,-2.33409 3.7558,-3.9481 1.1544,-3.89864 -2.3516,0.0447 -6.563,3.6512 -5.7673,4.93879 0.8759,1.41724 1.2943,1.3229 4.6129,-1.04015 z m -31.4506,-2.94482 c 3.2203,-1.15927 8.0138,-2.55488 10.6524,-3.10134 2.6386,-0.54647 6.9136,-2.22891 9.5,-3.73875 2.5864,-1.50985 6.1502,-3.334 7.9194,-4.05367 1.7693,-0.71968 3.7325,-1.92976 4.3627,-2.68908 1.8467,-2.22519 -1.4771,-2.84505 -4.5299,-0.84478 -3.3867,2.21905 -4.3347,1.24991 -1.4272,-1.45892 1.2401,-1.1553 3.4933,-2.10055 5.0071,-2.10055 3.79,0 4.5623,-1.7865 1.3073,-3.02404 -4.2014,-1.59736 -8.9249,-0.14131 -13.6285,4.20105 -3.8915,3.59256 -5.0078,4.05463 -11.5744,4.79105 -3.9972,0.44826 -7.9618,1.39115 -8.8102,2.0953 -1.1137,0.92422 -5.3344,1.22871 -15.177,1.09488 -16.1749,-0.21994 -20.2467,0.72916 -20.2467,4.71931 0,4.41381 1.5397,5.13585 9.5145,4.46174 6.2789,-0.53076 7.2538,-0.3855 7.8506,1.16978 0.5894,1.53602 1.5418,1.69545 7.0532,1.18079 3.5045,-0.32726 9.0065,-1.5435 12.2267,-2.70277 z m 266.7899,-2.96234 c 2.9297,-1.11388 3.4219,-2.88473 0.8151,-2.93257 -0.9625,-0.0177 -3.1592,-0.31389 -4.8816,-0.65827 -3.826,-0.76499 -5.568,1.21574 -2.8301,3.21779 2.1939,1.60419 3.476,1.67355 6.8966,0.37305 z m 31.5651,-6.52475 c 0,-0.825 -0.4234,-1.5 -0.941,-1.5 -1.261,0 -2.1641,1.56159 -1.3652,2.36052 1.1262,1.12618 2.3062,0.68589 2.3062,-0.86052 z m 7.9847,-4.75 c -0.01,-0.6875 -0.4422,-1.925 -0.9639,-2.75 -0.8342,-1.31935 -1.1477,-1.3008 -2.603,0.15404 -0.9099,0.90972 -1.3497,2.14722 -0.9771,2.75 0.9322,1.50842 4.5628,1.38534 4.544,-0.15404 z m -344.4178,-11.43632 c -0.304,-0.79225 -0.9975,-1.16562 -1.541,-0.82972 -1.1044,0.68257 -0.6067,8.79997 0.6595,10.75706 0.9391,1.45148 1.7488,-7.66717 0.8815,-9.92734 z m 41.4119,8.31358 c 3.5867,-1.305 8.4337,-2.95203 10.7712,-3.66005 4.4424,-1.34562 5.2791,-2.35834 2.75,-3.32884 -2.3101,-0.88645 -1.81,-2.52839 1.9,-6.23837 3.6577,-3.65767 7.5087,-4.41985 9.6,-1.9 1.4691,1.77022 -0.061,2.03856 -1.7868,0.31324 -0.9156,-0.91567 -1.7393,-0.66764 -3.6058,1.08583 -2.5165,2.36413 -4.071,6.10093 -2.538,6.10093 0.4853,0 2.3556,-0.89832 4.1564,-1.99626 1.8008,-1.09795 4.0617,-1.99795 5.0242,-2 2.5005,-0.005 2.1603,-2.68432 -0.7046,-5.54919 -2.3489,-2.34894 -7.5454,-3.42602 -7.5454,-1.56396 0,0.48983 -1.4625,1.12191 -3.25,1.40462 -4.447,0.70334 -14.2976,4.27448 -16.9873,6.15847 -2.4524,1.71773 -6.9954,2.02535 -9.5784,0.6486 -0.9264,-0.49375 -2.7542,-1.05625 -4.0619,-1.25 -2.1217,-0.31437 -2.5272,0.22875 -3.7676,5.04674 -0.7646,2.96947 -1.133,5.6561 -0.8188,5.97031 0.3142,0.3142 2.0096,0.47922 3.7676,0.3667 1.758,-0.11252 4.5464,0.42679 6.1964,1.19847 3.9147,1.83084 3.044,1.89792 10.4788,-0.80724 z m -27.504,-4.22911 c 3.0689,-4.68378 -0.1471,-17.39815 -4.4007,-17.39815 -2.3466,0 -4.588,-8.27632 -3.5764,-13.20586 0.6455,-3.14548 0.6069,-3.1999 -0.8542,-1.206 -2.9399,4.01194 -4.8458,10.27501 -4.3728,14.36986 0.5648,4.88933 2.2008,7.042 5.3517,7.042 3.2093,0 6.3864,3.38333 6.3385,6.75 -0.039,2.74218 -0.043,2.74051 -1.4884,-0.5872 -1.51,-3.47703 -4.2484,-3.89788 -3.6125,-0.55517 0.198,1.0408 0.503,3.46737 0.6777,5.39237 0.1747,1.925 0.3502,3.62833 0.39,3.78518 0.2312,0.91161 4.0587,-2.11542 5.5471,-4.38703 z m 169.8483,0.48049 c -1.1668,-1.16674 -2.6168,-1.81518 -3.2222,-1.44098 -2.4294,1.50144 -0.6444,3.09053 3.8713,3.44634 1.0574,0.0833 0.8745,-0.48173 -0.6491,-2.00536 z m 75.5935,-38.62864 c -1.1725,-7.09806 -5.445,-23.19834 -7.3639,-27.75 l -1.6863,-4 -2.1859,2.51821 -2.1858,2.5182 -3.2019,-3.5182 c -1.761,-1.93502 -5.0798,-6.44321 -7.3751,-10.01821 -7.2815,-11.34122 -9.7566,-14 -13.0331,-14 -3.9741,0 -4.7416,-2.4572 -1.7611,-5.638 2.89,-3.08424 7.3361,-2.75274 12.2195,0.91107 7.116,5.33894 7.7874,4.08262 1.4678,-2.7463 l -4.1891,-4.52677 -10.1648,0 c -9.5153,0 -10.3411,-0.16331 -12.9222,-2.55538 -1.5165,-1.40547 -2.943,-2.36964 -3.1701,-2.14261 -0.227,0.22704 -1.0893,3.73946 -1.9163,7.80539 -1.8049,8.87434 -3.9231,14.47455 -11.6139,30.70561 -5.8583,12.36352 -6.5737,14.61206 -4.9649,15.60631 1.1878,0.73414 8.5139,-13.78177 10.6134,-21.02932 2.1934,-7.57204 2.9988,-8.53755 6.1292,-7.34736 1.3515,0.51383 2.8706,0.82694 3.3758,0.6958 0.5052,-0.13114 3.1896,2.18774 5.9653,5.15306 5.2531,5.61189 5.9427,5.3391 3.518,-1.3915 -1.7816,-4.94505 -1.8742,-8.50212 -0.2212,-8.49341 3.6567,0.0193 14.7452,10.30353 19.25,17.85374 1.7375,2.91209 4.782,6.16058 7.2344,7.71905 5.0299,3.19647 8.1778,7.12349 11.1588,13.92062 5.1933,11.84178 6.5014,14.5 7.1357,14.5 0.3698,0 0.3193,-2.1375 -0.1123,-4.75 z m 20.0681,-60.5 c -0.028,-2.31956 -1.4763,-3.68225 -2.9468,-2.77343 -1.1666,0.72103 -1.1841,1.1424 -0.1012,2.44721 1.5699,1.89153 3.0691,2.05199 3.048,0.32622 z m -151.5179,-16.19778 c -2.2694,-5.94234 -3.9837,-7.12096 -3.0399,-2.09002 1.1659,6.21479 2.5026,9.00829 3.7254,7.78552 0.7706,-0.77062 0.5751,-2.39451 -0.6855,-5.6955 z m 67.5707,-4.30222 c 0.9254,-3.10467 0.7625,-5.07198 -0.9466,-11.43197 -1.1354,-4.22508 -2.3525,-10.97508 -2.7048,-15 -0.8125,-9.28287 -3.3887,-14.10647 -7.0439,-13.18906 -1.991,0.49969 -3.2752,-0.13414 -6.3445,-3.13125 -3.7034,-3.61628 -4.0488,-3.73624 -9.173,-3.18598 -2.9286,0.31448 -8.2497,0.86374 -11.8247,1.22057 -6.2652,0.62534 -16.8297,4.01868 -18.1302,5.82345 -1.2896,1.78969 -14.3594,6.44913 -15.3698,5.47942 -0.6594,-0.63289 -0.4225,-1.28564 0.6956,-1.91672 0.9326,-0.52633 2.5982,-2.22458 3.7014,-3.77389 1.8856,-2.64802 1.9175,-3.11065 0.5314,-7.71617 -0.9949,-3.30594 -1.2645,-6.75466 -0.829,-10.60445 0.355,-3.13785 0.3381,-7.75519 -0.038,-10.26075 -0.562,-3.7476 -1.124,-4.66622 -3.169,-5.17948 -3.4952,-0.87725 -3.9309,0.0518 -1.5755,3.35961 1.563,2.19503 2.0266,4.38091 1.9976,9.4178 -0.021,3.60763 0.2737,8.40324 0.6544,10.65692 0.3808,2.25368 0.4161,4.968 0.078,6.03181 -0.691,2.17732 -3.9029,3.39482 -5.2918,2.00592 -0.5505,-0.55051 -1.8741,0.3637 -3.3344,2.30305 -1.3318,1.76876 -3.4339,4.11276 -4.6714,5.20889 -2.605,2.30741 -2.9755,4.12466 -0.6598,3.23602 0.8747,-0.33562 2.0009,-0.35646 2.5027,-0.0463 1.5256,0.94287 -0.8439,4.16324 -3.5659,4.84643 -1.4332,0.35969 -3.59,2.31976 -4.9859,4.53097 -1.353,2.14337 -2.9283,4.18642 -3.5006,4.54012 -1.853,1.14525 -1.104,4.25343 1.4243,5.91003 2.9972,1.96383 4.9311,2.08911 4.2347,0.27433 -0.283,-0.73738 -0.1198,-1.97488 0.3625,-2.75 0.7161,-1.15077 1.247,-1.18 2.8939,-0.15932 2.869,1.77803 2.9024,1.74275 3.2393,-3.42183 0.1762,-2.70154 0.8502,-4.85145 1.598,-5.09773 0.9774,-0.32189 1.195,0.81944 0.891,4.67357 -0.4123,5.22837 0.4779,7.3526 3.5237,8.40873 1.5344,0.53203 1.6463,-0.0685 1.1008,-5.91002 -0.4921,-5.26909 -0.3419,-6.44537 0.792,-6.20247 0.7696,0.16486 1.2868,-0.26275 1.1493,-0.95025 -0.3652,-1.82585 2.4282,-1.53097 3.143,0.33179 0.3338,0.86998 0.607,2.78095 0.607,4.24659 0,3.49555 4.9507,18.32013 5.9183,17.7221 0.4122,-0.25477 -0.013,-3.52036 -0.9449,-7.25685 -2.1621,-8.66884 -3.1454,-17.29363 -1.9716,-17.29363 0.4992,0 1.1825,1.6875 1.5185,3.75 0.5294,3.24947 2.5128,10.66072 4.059,15.16722 0.3047,0.88805 0.8385,1.06499 1.4296,0.47388 0.5911,-0.59111 0.2559,-3.21378 -0.8978,-7.0241 -1.0126,-3.34442 -2.1618,-8.21932 -2.5538,-10.8331 -1.1978,-7.9879 1.622,-4.98629 4.4427,4.72905 4.0175,13.83772 5.5438,12.75344 2.1297,-1.51295 -1.0201,-4.2625 -1.5216,-7.75 -1.1146,-7.75 1.2507,0 2.6662,2.31445 3.9754,6.5 1.2915,4.1292 3.727,7.7683 2.677,4 -0.9739,-3.49521 -1.1227,-10.45941 -0.2294,-10.73475 1.1269,-0.34732 2.8689,4.80369 5.0704,14.9927 0.9794,4.53313 2.2176,8.24205 2.7514,8.24205 1.3294,0 0.019,-9.84494 -2.2102,-16.60122 -1.8875,-5.72159 -1.1794,-7.05258 1.5423,-2.89878 1.5635,2.38625 4.2716,3.70639 2.8351,1.38205 -0.38,-0.61487 -1.0342,-2.63987 -1.4537,-4.5 -0.9718,-4.30884 0.3939,-4.38757 4.6445,-0.26775 l 3.2132,3.1143 -0.5545,-6.1143 c -0.4676,-5.15714 -0.3052,-6.1143 1.0374,-6.1143 0.8755,0 3.0383,1.8 4.8062,4 3.9668,4.93614 5.3174,5.08379 4.5735,0.5 -0.7835,-4.82819 1.4911,-4.64457 6.1937,0.5 2.011,2.2 3.984,4 4.3845,4 0.4004,0 0.7281,-1.77344 0.7281,-3.94098 0,-2.16754 0.4302,-4.20688 0.9561,-4.53187 1.5914,-0.98358 4.2635,4.20365 4.7583,9.23728 0.2561,2.60456 1.1175,6.53557 1.9143,8.73557 0.7968,2.2 1.5438,7.93356 1.66,12.74124 0.1162,4.80768 0.5307,8.74518 0.9212,8.75 0.3904,0.005 1.2128,-1.67874 1.8276,-3.74124 z m -93.5825,0.5 c -0.8058,-2.66702 -2.201,-4.33735 -2.9758,-3.56256 -0.762,0.76202 1.6263,5.81256 2.7487,5.81256 0.4988,0 0.601,-1.0125 0.2271,-2.25 z m 2.516,-27.71094 c 0.8091,-0.51167 1.211,-1.19037 0.8932,-1.50823 -0.7878,-0.78775 -3.8642,0.46709 -3.8642,1.57616 0,1.13978 1.1012,1.11461 2.971,-0.0679 z m -2.9816,-13.28906 c -0.015,-1.77782 -6.6873,-9.76671 -11.9894,-14.35545 -2.475,-2.142 -4.8402,-4.42188 -5.256,-5.0664 -1.2239,-1.89725 -6.3987,-2.58678 -8.9354,-1.1906 -1.2697,0.69888 -4.3285,1.51634 -6.7972,1.81657 -3.3605,0.40869 -4.5798,1.02272 -4.8517,2.44323 -0.3181,1.66215 0.086,1.82444 3.2612,1.3092 3.3061,-0.53651 13.3757,0.54895 17.9396,1.93383 2.9658,0.89992 9.6395,7.41695 9.6395,9.41311 0,1.5224 -0.5736,1.72769 -3.5,1.2528 -4.2214,-0.68504 -4.7423,1.07331 -0.75,2.53143 4.0592,1.48254 11.2522,1.4264 11.2394,-0.0877 z m 16.8189,-4.825 c -0.1971,-0.59125 -0.7858,-1.075 -1.3083,-1.075 -0.5225,0 -1.1113,0.48375 -1.3083,1.075 -0.1971,0.59125 0.3916,1.075 1.3083,1.075 0.9167,0 1.5054,-0.48375 1.3083,-1.075 z m 50.4122,-8.78081 c 0.3963,-0.37689 -0.324,-1.9953 -1.6008,-3.59647 l -2.3213,-2.9112 -4.1312,3.43174 c -2.2721,1.88746 -4.1393,3.82109 -4.1492,4.29696 -0.02,0.96569 11.0701,-0.14405 12.2025,-1.22103 z m -67.2205,-3.58517 c 0,-0.79254 -0.45,-1.7191 -1,-2.05902 -1.4669,-0.90661 -1.2203,-4.5 0.3089,-4.5 0.7198,0 2.1823,0.66069 3.25,1.4682 4.207,3.18207 6.9884,1.15994 3.9413,-2.86552 -0.7899,-1.04353 -1.2305,-2.23004 -0.9792,-2.63669 0.9176,-1.48463 -2.4375,-3.04799 -7.6651,-3.57175 l -5.3559,-0.53662 2.4101,2.11111 c 1.8921,1.65742 2.1483,2.37116 1.1919,3.32119 -0.954,0.94766 -2.29,0.61371 -6.1606,-1.53992 -5.7537,-3.20136 -7.9935,-3.57008 -5.5964,-0.92126 2.1526,2.3786 2.1098,3.57515 -0.095,2.65444 -2.5185,-1.05171 -7.25,-1.29903 -7.25,-0.37895 0,0.43048 1.35,1.58016 3,2.55484 1.65,0.97468 3,2.07589 3,2.44713 0,0.61775 4.6218,1.65827 9.4643,2.13073 1.0803,0.1054 2.7678,0.99521 3.75,1.97736 2.1566,2.15657 3.7857,2.30492 3.7857,0.34473 z m 59,-3.10791 c 0,-1.69996 -7.2376,-5.39421 -10.6365,-5.42915 -1.6161,-0.0166 -2.2438,0.70874 -2.5768,2.97804 -0.4694,3.19808 1.7517,4.3664 2.8517,1.5 0.7843,-2.04391 2.6802,-1.88305 5.5008,0.46673 2.858,2.38094 4.8608,2.58052 4.8608,0.48438 z m -41.8988,-10.16343 c -0.9606,-1.65061 -1.0427,-1.62794 -1.0708,0.29565 -0.034,2.31486 1.2352,4.11979 1.7695,2.51685 0.1879,-0.56366 -0.1265,-1.82928 -0.6987,-2.8125 z m -38.1012,329.71232 c 0.825,-0.53316 1.95,-0.96937 2.5,-0.96937 0.55,0 0.325,0.43621 -0.5,0.96937 -0.825,0.53316 -1.95,0.96937 -2.5,0.96937 -0.55,0 -0.325,-0.43621 0.5,-0.96937 z m -28.1152,-4.78138 c -0.2986,-1.86389 0.4248,-5.42831 2.7845,-13.71862 2.8551,-10.03112 6.0096,-16.5 8.0462,-16.5 2.4954,0 2.505,2.94758 0.024,7.23766 -2.5069,4.33457 -5.9693,13.6924 -7.1885,19.4288 -0.5923,2.78667 -3.359,5.46752 -3.6659,3.55216 z m -6.8292,-10.8955 c -3.1647,-7.07201 -4.3813,-11.08341 -4.3441,-14.32312 0.057,-4.93404 3.0334,-15.49894 6.2328,-22.1208 2.312,-4.78533 2.1436,-6.18854 -0.2958,-2.46544 -0.8924,1.36189 -4.1033,4.89832 -7.1355,7.85872 -3.0321,2.9604 -5.513,6.1773 -5.513,7.14866 0,0.97135 -0.9,2.00145 -2,2.28911 -1.1,0.28766 -2,0.90007 -2,1.36093 0,0.46085 -1.0125,1.95043 -2.25,3.31018 -1.2375,1.35975 -4.5,5.2503 -7.25,8.64568 -2.75,3.39538 -6.7177,8.04082 -8.8171,10.32319 -3.814,4.14642 -3.8165,4.14735 -3.1016,1.14977 1.6812,-7.04919 7.1555,-15.4885 17.8734,-27.55386 2.2249,-2.50463 4.7071,-5.54213 5.5161,-6.75 0.8089,-1.20788 2.0464,-2.19614 2.75,-2.19614 0.7035,0 1.2766,-0.5625 1.2734,-1.25 -0.01,-1.95341 9.1943,-9.78418 12.2509,-10.42369 2.9564,-0.61856 4.6918,-2.96251 9.7668,-13.19139 1.7544,-3.53605 3.5363,-5.98058 4.0093,-5.5 1.949,1.98048 -1.7792,16.00876 -6.9384,26.10767 -2.8264,5.53251 -5.8013,10.60883 -6.6109,11.28071 -0.8095,0.67187 -1.4719,1.88452 -1.4719,2.69477 0,0.81026 -0.9378,2.79027 -2.0841,4.40004 -2.5905,3.638 -2.0698,8.00859 2.2721,19.07277 4.4672,11.38354 2.9446,11.47795 -2.1324,0.13224 z m 28.6944,-13.94817 c -3.3442,-7.44843 -3.492,-8.84242 -0.784,-7.39313 2.1038,1.12588 4.3532,7.76615 3.8434,11.34564 -0.2288,1.60621 -1.0263,0.57589 -3.0594,-3.95251 z m 74.9489,-2.28648 c -1.9436,-2.15134 -4.0733,-4.91957 -4.7327,-6.15163 -1.0465,-1.95535 -0.983,-2.15727 0.4992,-1.58847 0.934,0.3584 2.0897,0.65163 2.5683,0.65163 1.0552,0 6.9663,8.42606 6.9663,9.93018 0,2.01588 -1.7696,1.0673 -5.3011,-2.84171 z m -36.8915,-43.77427 c -0.1691,-2.64781 0.2725,-6.60747 0.9812,-8.79926 1.8744,-5.79695 12.4339,-26.87636 13.9334,-27.81463 0.7029,-0.43983 1.278,-1.42019 1.278,-2.17857 0,-0.75839 0.5625,-1.98912 1.25,-2.73496 1.3071,-1.41808 3.0198,-4.79399 12.0671,-23.78678 6.0681,-12.73862 6.6634,-14.22405 7.3575,-18.35921 l 0.4799,-2.8592 -3.8273,3.06406 c -4.5955,3.67915 -10.2498,6.16452 -12.8967,5.66887 -1.0618,-0.19882 -2.7395,-0.39593 -3.7283,-0.43801 -0.9887,-0.0421 -2.9227,-1.29045 -4.2978,-2.77415 -1.9675,-2.123 -2.4366,-3.55903 -2.2022,-6.74138 0.3962,-5.37965 2.6914,-5.73865 5.2978,-0.82864 2.4221,4.56275 5.2765,5.16692 12.7242,2.6932 7.0031,-2.32605 13.2744,-8.8323 18.7242,-19.42554 4.1718,-8.10893 4.3771,-8.91408 4.4623,-17.5 0.049,-4.95 -0.2566,-10.56094 -0.6795,-12.46875 -0.5711,-2.57713 -0.4784,-3.17849 0.3605,-2.33953 0.6211,0.62107 1.7528,3.75701 2.515,6.96875 1.2637,5.325 1.2035,6.63254 -0.6834,14.83953 -2.2092,9.60915 -7.0506,19.52683 -11.3538,23.25856 -2.4962,2.16473 -2.5366,2.36205 -0.9719,4.75 0.8978,1.37029 2.0119,2.49144 2.4757,2.49144 2.1123,0 -0.7353,16.84237 -4.1422,24.5 -2.1579,4.85008 -3.3002,8.16185 -3.5493,10.29 -0.1475,1.2595 -1.1937,3.78761 -2.325,5.61803 -1.1312,1.83042 -2.0568,4.03028 -2.0568,4.88858 0,0.85829 -0.6156,2.17616 -1.3681,2.9286 -0.7524,0.75244 -1.6501,2.25677 -1.9948,3.34295 -0.3448,1.08619 -1.9792,3.45548 -3.632,5.26508 -1.6528,1.80961 -3.0051,3.5513 -3.0051,3.87042 0,1.38713 -8.4763,13.98039 -10.6323,15.79634 -1.3059,1.1 -3.6104,4.44336 -5.1211,7.42969 -3.6106,7.13771 -5.0484,7.5037 -5.4392,1.38451 z m -17.5574,-0.95665 c -3.6819,-1.54447 -4.1575,-2.93474 -1.3128,-3.83762 1.0654,-0.33816 3.2233,-2.5565 4.7952,-4.92964 3.7507,-5.66247 8.2342,-10.95703 8.7997,-10.3915 0.5892,0.58916 -1.9692,10.27928 -3.9642,15.01514 -2.031,4.82102 -4.1667,5.88494 -8.3179,4.14362 z m -13.9938,-95.32783 c -5.5572,-2.52258 -9.2562,-6.31478 -9.2562,-9.48951 0,-1.93144 1.37,-3.58122 5.643,-6.79545 9.5342,-7.17179 13.3565,-10.88887 14.0084,-13.62298 0.9228,-3.87039 1.3778,-4.34243 2.9376,-3.04789 1.8548,1.53932 1.7957,6.28155 -0.1246,9.99495 -0.8446,1.63323 -5.0071,5.5026 -9.25,8.59859 -4.2429,3.09599 -8.1182,5.9887 -8.6118,6.42824 -0.4936,0.43954 1.6439,1.92306 4.75,3.29672 4.2209,1.86669 5.6474,3.01663 5.6474,4.55258 0,2.50812 -0.3923,2.51391 -5.7438,0.0847 z m 54.7438,-2.35541 c 0,-0.72912 1.125,-2.38256 2.5,-3.67431 3.096,-2.90857 3.3497,-7.47488 0.5,-9 -1.1,-0.5887 -2,-1.53668 -2,-2.10661 0,-0.56994 -0.7212,-1.75742 -1.6026,-2.63885 -3.6972,-3.69724 0.8051,-14.08405 7.8336,-18.07216 l 4.723,-2.67987 4.5037,4.99874 c 5.0684,5.62547 6.2468,8.59329 4.9153,12.37947 -1.5146,4.3066 -4.0695,3.87533 -4.8629,-0.82086 -0.9114,-5.39477 -2.2635,-5.99021 -3.0375,-1.33765 -1.1006,6.61608 -1.2755,6.8116 -3.8932,4.35238 -4.7147,-4.42925 -4.6058,3.14469 0.1167,8.11033 3.5056,3.68617 2.5668,7.13016 -2.6723,9.80292 -4.5666,2.32973 -7.0238,2.56989 -7.0238,0.68647 z m -93,-17.47379 c -5.691,-3.8575 -6.4132,-5.36531 -1.25,-2.60961 2.8875,1.54111 5.25,3.16362 5.25,3.60556 0,1.19697 -1.2088,0.89598 -4,-0.99595 z m -3.5271,-6.24432 c -0.3548,-0.5741 -0.1508,-1.63939 0.4533,-2.36733 0.8163,-0.98354 0.71,-1.64592 -0.4139,-2.57864 -0.8318,-0.69031 -1.5123,-1.76831 -1.5123,-2.39555 0,-0.62723 -1.0099,-1.58463 -2.2442,-2.12755 -1.2342,-0.54292 -2.3995,-1.81219 -2.5894,-2.82059 -0.3223,-1.71198 0.4743,-1.81136 12.0226,-1.5 10.8451,0.29241 12.7037,0.59811 15.0966,2.4831 l 2.7289,2.14964 -3.1565,1.10036 c -1.736,0.6052 -5.5643,1.10036 -8.5072,1.10036 -2.943,0 -5.3508,0.45 -5.3508,1 0,0.55 1.575,1 3.5,1 1.925,0 3.5,0.417 3.5,0.92668 0,0.50967 0.7875,1.13247 1.75,1.38399 1.2077,0.31562 0.9753,0.50425 -0.75,0.60876 -1.375,0.0833 -3.625,0.79455 -5,1.58057 -2.9383,1.67969 -8.6033,1.95095 -9.5271,0.4562 z m 121.986,-18.02273 c -0.3626,-0.58659 -0.4447,-1.281 -0.1826,-1.54313 0.2621,-0.26213 0.7431,0.21781 1.0688,1.06653 0.6762,1.76211 0.1,2.07206 -0.8862,0.4766 z m -94.1572,-6.30776 -3.0833,-4.3743 -7.3592,0.49328 c -5.9033,0.39569 -8.2339,1.06323 -11.7806,3.37429 -5.2476,3.41934 -7.2992,3.5722 -11.1492,0.83073 -4.5018,-3.20554 -6.2874,-12.94971 -2.3731,-12.94971 0.7383,0 2.6548,1.40438 4.259,3.12085 l 2.9167,3.12085 7.6721,-3.79173 c 4.9121,-2.42769 9.5486,-3.94736 12.8886,-4.22433 5.1936,-0.4307 5.2287,-0.41404 7.9849,3.7958 2.4476,3.73837 4.6271,10.10749 4.6979,13.72856 0.046,2.34601 -1.5877,1.254 -4.6738,-3.12429 z m -44.9087,-21.62571 c 0.3634,-6.33 5.6977,-22.30071 6.3461,-19 0.2854,1.45285 -0.701,5.37763 -4.7752,19 l -1.9441,6.5 0.3732,-6.5 z m 11.857,5.33772 c -1.909,-0.77028 -1.488,-2.33772 0.6279,-2.33772 1.0328,0 3.5564,-0.70136 5.6081,-1.55858 5.0723,-2.11935 5.4851,-1.17342 0.8596,1.96968 -3.8254,2.59947 -4.7834,2.85959 -7.0956,1.92662 z m 4,-29.32356 c -3.4024,-1.43614 -2.7015,-2.10962 1.5,-1.44131 2.31,0.36743 5.478,-0.006 8.25,-0.97363 6.0803,-2.12151 7.1549,-1.99107 3.2436,0.39373 -3.9211,2.39074 -9.9108,3.32246 -12.9936,2.02121 z"
         style="fill:#2e4c75" />
    </g>
  </g>
</svg>
