<?xml version="1.0" encoding="utf-8"?>

<!DOCTYPE svg PUBLIC "-//W3C//DTD SVG 1.1//EN" "http://www.w3.org/Graphics/SVG/1.1/DTD/svg11.dtd">
<svg version="1.1" id="Layer_1" xmlns="http://www.w3.org/2000/svg" xmlns:xlink="http://www.w3.org/1999/xlink" x="0px" y="0px"
	 viewBox="-31 -31.9313 1926 1983.8627" enable-background="new -31 -31.9313 1926 1983.8627" xml:space="preserve">
<path d="M617.53,0h2.1299c27.08,3.57,54.42,0.88,81.59,0h10.42c-8.03,11.83-13.28,25.7-14.01,40.04
	c-0.99,17.66,4.4301,34.93,11.54,50.88c9.3,20.77,21.51,40.06,31.5,60.48c1.8,3.91,3.65,8.19,2.87,12.59
	c-0.52,2.51-3.12,3.83-5.48,4.05c-8.46,0.87-16.6201-3.04-25.07-2.41c-3.2,0.18-3.69,3.89-4.08,6.37
	c-1.45,13.96,0.66,28.13-1.76,42.02c-0.45,3.14-1.77,6.04-3.38,8.74c3.31,3.62,6.99,7.31,8.38,12.16c1.09,3.6-1.41,6.97-4.26,8.86
	c-6.02,4.13-12.91,6.87-18.62,11.47c-6.2,4.83-11.57,11.71-12,19.84c-0.82,6.54-0.08,14.13-4.9,19.34
	c-9.27,8.51-22.1,11.61-34.36,12.3c-13.41,0.97-27.22,0.58-40.05,5.19c-3.23,1.12-5.81,3.67-7.24,6.73
	c-2.76,5.8-2.89,12.37-4.72,18.45c-5.9901,21.34-6.5,43.96-2.8701,65.76c2.45,16.17,7.34,31.83,12.59,47.28
	c0.97,2.22,3,3.73,4.62,5.47c13.94,13.45,25.85,28.78,38.46,43.44c22.62,26.57,45.68,53.21,73.36,74.69
	c15.35,11.67,32.54,22.06,51.85,25.23c10.78,1.82,21.93,0.38,32.08-3.5699c17.29-6.16,32.3-17.31,45.32-30.03
	c22.57-22.24,40.24-48.88,62.98-70.95c6.77-6.37,15.94-12.26,25.65-10c6.99,1.19,12.21,6.71,18.99,8.4
	c5.06,1.04,8.53-3.82,10.09-7.95c4.67-12.16,5.66-25.29,8.85-37.84c2.18-15.66,2.17-31.81,7.18-46.96c1.61-4.41,3.7-9.4,8.26-11.46
	c3.38-1.06,8.08-0.51,10.07,2.79c1.74,4.18,0.01,8.85,1.15,13.16c0.52,2.27,3.29,3.45,5.36,2.41c4.42-1.77,7.76-5.36,11.21-8.52
	c10.66-10.73,20.42-22.37,31.85-32.32c6.37-5.25,13.38-10.85,21.9-11.63c8.4501-0.74,14.63,7.03,16.8,14.38
	c1.72,6.01-2.1,11.7-6.0801,15.83c-6.71,7.25-15.87,12.9-19.46,22.53c-2.27,5.96,0.41,12.1,2.96,17.49
	c5.8601,13.21,13.39,26.42,13.7001,41.25c0.35,10.5-4.8301,20.5-12.48,27.46c-7.61,7.61-18.39,10.28-28.3101,13.51
	c-13.18,4.28-27.11,7.59-38.59,15.7c-7.76,5.3-11.62,15.46-9.74,24.58c1.98,8.04,9.28,12.85,15.49,17.53
	c3.2,2.47,7.22,5.76,6.36,10.33c-0.97,4.24-4.41,7.29-7.5,10.08c-33.16,27.79-66.6,55.39-102.58,79.49
	c-19.9,13.28-40.56,25.56-62.44,35.3c-16.27,7.17-33.29,12.98-50.94,15.48c-28.45,3.53-58.03-1.15-83.81-13.78
	c-14.9-7.3199-28.44-17.16-40.86-28.12c-7.43-6.36-13.95-13.67-20.91-20.5099c3.73,38.3199,7.23,76.66,9.78,115.0699
	c1.97,32.25,3.81,64.62,1.95,96.92c-0.66,8.46-1.27,17.1-4.36,25.1c-4.26,12-13.43,21.21-19.55,32.17
	c-5.55,9.55-7.16,20.91-5.86,31.78c12.1,97.44,24.95,194.8699,31.8,292.86c2.65,39.3099,4.63,78.6899,4.56,118.1
	c0.06,3,0.59,6.11-0.47,9.01c-14.65,44.34-24.53,90.1-32.19,136.12c-8.01,48.65-13.56,97.65-18.98,146.64
	c-3.49,22.9399,0.43,46.1-0.87,69.1399c-0.67,10.7201-2.5,21.77-8.16,31.1001c-3.25,5.45-7.86,10.7899-14.36,12.1599
	c-8.43,1.67-17.58,0.9701-25.29,5.3201c-5.31,3.11-6.9,9.76-6.4,15.5c0.79,12.0499,5.85,23.22,9.57,34.5599
	c2.78,8.9701,9.75,15.9,17.39,20.99c15.3,10.04,33.2,15.25,50.98,18.8501c18.33,3.88,37.89,1.7,55.48,8.9399
	c3.54,1.53,6.65,4.5601,7.22,8.53c1.13,7.63-3,15.3099-8.85,20.02c-14.99,10.5499-33.39,14.95-51.44,16.24
	c-15.48,1.1699-31.0099,0.5699-46.52,0.51c-12.11-0.39-24.21,0.6-36.29,1.34h-17.49c-7.9-0.5-15.6-2.39-23.3-4.0699
	c-21.59-4.87-42.74-11.4-64-17.4901c-10.11-2.9299-20.85-3.74-30.51-8.1c-3.24-1.47-7.06-4.38-5.99-8.4299
	c3.77-18.26,14.08-34.17,23.51-49.9401c8.78-14.6699,17.94-29.78,20.83-46.89c0.92-4.95-4.54-7.3999-8.35-8.6599
	c-18.75-5.5901-38.89-4.3301-57.51-10.51c-4.47-1.66-9.76-4.13-10.83-9.28c-1.05-6.04,0.92-12.08,2.79-17.75
	c6.96-19.1,17.96-36.34,26.33-54.8c3.27-7.0699,4.82-14.75,7.2-22.13c18.93-63.47,42.69-125.99,51.92-191.8899
	c3.78-24.6001,1.68-49.88,7.75-74.14c2.72-9.4701,4.75-19.17,5.37-29.01c2.29-32.0801-5.1-63.66-8.9-95.3301
	c-3.49,10.26-6.5,20.7301-11.12,30.5701c-33.47,75.9399-72.38,149.4-104.32,226.03c-15.41,36.7699-26.92,75.0399-42.56,111.71
	c-8.1,19.01-17.1,37.74-28.62,54.9399c-9.18,13.53-20.05,26.38-34.08,35.0901c-12.6,8.01-28.06,11.3999-42.83,8.98
	c-14.81-2.17-28.31-9.1901-40.82-17.0801c-2.58,8.27-1.82,17.3501,1.77,25.2001c5.65,12.74,15.66,22.87,25.87,32.09
	c15.97,14.25,33.79,26.1901,50.44,39.61c3.77,3.23,7.83,6.2101,11,10.0901c-23.96,5.85-48.54,9.86-73.27,9.47
	c-24.79-0.23-49.46-5.37-72.43-14.66c-32.39-12.99-61.56-32.47-90.56-51.6c-4.34-2.9301-8.78-5.71-13.02-8.78v-1.09l0.15,0.7899
	c19.08-17.85,40.48-33.37,57.36-53.48c4.04-5.1799,8.46-10.7,9.37-17.3999c0.72-4.1101-2.46-7.2001-4.89-10.01
	c-6.66-7.7201-14.38-14.4301-22.44-20.63c-3.12-2.7101-6.93-5.3201-8.15-9.4601c-1.02-5.89,3.39-10.6799,6.69-14.99
	c12.23-14.28,26.16-26.99,39.08-40.62c52.41-53.76,101.01-111.61,140.82-175.39c8.3-13.45,16.68-26.89,23.93-40.9299
	c8.09-16.5701,14.14-34.04,19.63-51.61c6.44-20.9401,11.85-42.1801,16.89-63.49C290.02,1215.2,299.4,1165,308.57,1114.78
	c10.67-57.85,20.37-115.92,33.27-173.34c-4.64-2.43-9.43-4.67-13.77-7.63c-5.24-4.54-9.8-10.69-10.17-17.85
	c-1.05-12.67-0.03-25.41,1.23-38.03c2.53-20.95,5.26-41.88,8.53-62.72c-8.1-4.39-16.03-9.1-24.08-13.58
	c-5.51-3-10.24-7.18-14.98-11.25c-12.86-11.35-23.87-24.9-31.72-40.17c-9.76-18.75-14.58-40.04-13.85-61.15
	c0.49-20.84,6.07-41.31,14.58-60.24c13.32-29.95,34.19-55.88,57.69-78.45c28.07-27.15,59.62-50.34,88.36-76.74
	c7.59-6.7,14.27-14.34,21.43-21.48c1.47-1.53,3.14-2.95,4.13-4.87c23.46-49.33,48.32-98.57,62.14-151.7
	c12.49-49.52,9.95-100.98,10.08-151.58c-0.01-2.89-1.17-5.59-1.89-8.34c-3.54-12.51-4.28-25.75-2.63-38.62
	c3.17-22.46,15.68-42.81,32.39-57.83C553.65,17.21,585.44,5.01,617.53,0z"/>
<path fill="#FFFFFF" d="M619.66,0h81.59C674.08,0.88,646.74,3.57,619.66,0z"/>
<path d="M1241.41,47.08c0.02-3.08,2.9199-5.06,5.6699-5.62c6.4601-1.45,13.1001-0.03,19.49,1.14
	c18.9301,4.17,37.0801,11.19,54.87,18.78c12.75,5.61,25.41,11.55,37.27,18.9c17.73,11.44,33.42,25.99,46.3301,42.67
	c10.9299,14.07,19.9099,29.56,27.64,45.59c17.6699,36.89,29.35,76.26,46.24,113.49c6.37,14.58,14.7799,28.35,19.2799,43.71
	c1.17,4.66,2.38,10.42-0.99,14.49c-3.84,4.09-9.9199,4.4-15.14,4.92c-16.7,0.75-33.3999-0.69-50.09-0.42
	c-5.3199,0.18-8.11,5.67-9.36,10.16c-2.92,11.3-1.51,23.6,3.26,34.2c3.34,7.43,9.77,14.24,18.22,15.27
	c44.24,6.41,87.9601,16.49,130.4301,30.46c37.59,12.48,74.35,27.92,108.5,48.09c27.9099,16.33,53.77,36.61,74.53,61.53
	c23.9299,28.32,40.7,62.2,50.99,97.7c12.4199,42.78,16.5499,87.48,17.3899,131.86c0.4401,11.13-0.24,22.29,0.9301,33.39
	c2.6801,26.71,8.75,52.92,12.53,79.47c2.5399,18.26,4.66,36.86,2.3199,55.26c-1.4,10.65-4.7,21.47-11.84,29.73
	c-5.52,6.4901-13.36,10.53-21.48,12.7401c14.4199,14.42,27.9,29.98,38.52,47.45c8.9299,14.6899,15.59,31.08,17.08,48.33v13.16
	c-1.49,14.7-7.14,28.7899-15.67,40.7999c-4.2999,6.3201-9.51,12.2101-16.2,16.0601c-13.51,7.97-30.72,8.38-45.1,2.54
	c-14.35-5.54-26.1801-19.0801-26.6-34.9c0.0399-16.3401,1.21-32.6801,0.6499-49.03c-0.46-8.96-0.36-18.16-3.12-26.78
	c-0.59-1.98-2.49-5.02-4.87-3.38c-10.87,6.48-19.9199,16.0801-31.9099,20.67c-2.8501,1.16-7.3201,1.2-8.28-2.41
	c-2.63-8.58-2.05-18.12,1.77-26.26c3.87-8.35,10.0699-15.27,15.7799-22.3799c3.41-4.31,8.4-7.2,11.25-11.97
	c2.0901-3.53,0.9301-8.55-2.6499-10.6c-6.2201-3.54-14.3401-2.25-20.02-6.91c-4.03-3.92-5.49-9.62-6.8201-14.89
	c-3.23-14.81-3.73-30.04-4.0699-45.13c-0.6-11.9901-0.2001-24-0.67-35.98c-0.0599-10.73-2.4-21.26-3.09-31.95
	c-3.48-37.19-0.0699-74.51,2.65-111.63c1.45-23.77,2.4299-47.96-2.9-71.35c-3.5-15.74-10.0699-30.78-19.23-44.04
	c-10.49-15.23-23.92-28.23-38.4601-39.56c-13.71-10.64-28.3199-20.17-43.9099-27.83c-16.4-8.26-33.63-14.7-51.01-20.54
	c0.1,22.04,2.14,44.03,5.5499,65.8c7.3601,46.85,20.4701,92.7,25.3301,139.95c2.89,28.32,2.86,56.88,6.63,85.12
	c2.2,16.88,5.9,33.67,12.49,49.42c8.25,19.67,16.83,39.26,23.37,59.59c5.47,17.47,10.22,35.56,9.65,54.02
	c-0.3501,9.98-2.77,20.43-9.36,28.22c-6.37,7.1-10.0901,16.21-12.2301,25.41c-3.74,16.9401-2.0199,34.49,0.6901,51.4401
	c3.87,23.7699,10.7,46.99,13.85,70.8899c5.13,47.05,12.77,93.8101,22.58,140.1101c9.4901,44.9399,20.89,89.45,32.6801,133.84
	c4.04,14.46,6.86,29.22,9.79,43.9399c7.35,38.2001,13.7899,76.5801,19.6,115.04c4.33,29.33,8.41,58.7,11.23,88.22
	c1.39,15.9401,2.86,31.9301,2.27,47.9501c-0.4,5.2899-0.4,11.27-4.15,15.48c-4.38,5.01-10.97,7.1899-17.25,8.66
	c-12.5699,2.8099-25.52,2.5599-38.3199,2.7999c24.25,6.1,48.88,10.65,72.96,17.4401c25.8099,7.26,51.49,17.1699,72.67,34.01
	c10.4399,8.49,20.6,17.63,28.2,28.83c3.84,5.8099,7.13,12.55,6.58,19.72c-0.34,5.42-3.5299,10.26-7.6599,13.63
	c-6.0901,4.9401-13.5901,7.67-21.04,9.8c-13.6,3.65-27.6901,5.0399-41.71,5.76c-19.92,0.85-39.88,0.12-59.7101-1.8301
	c-10.08-0.9299-20.0499-2.76-30.1599-3.4c-22.3501-1.6499-44.74,0.1801-67.0801,1.1101c-9.98,0.2699-20.01,0.8899-29.96-0.0601
	c-7.86-0.9299-16.52-2.9-21.67-9.42c-4.4399-5.6699-4.35-13.4099-3.1899-20.1599c2.84-15.55,10.15-29.8401,13.3199-45.3
	c1.3301-6.8199,1.89-14.5499-2.0699-20.63c-2.88-4.5499-8.01-6.6699-12.3301-9.51c-8.1899-5.2999-16.74-10.5599-22.83-18.34
	c-4.74-5.99-6.61-13.61-7.55-21.04c-1.37-11.13-2.09-22.33-3.4399-33.46c-2.6801-20.53-5.53-41.05-7.4301-61.6801
	c-13.9099-149.8099-5.09-301-24.49-450.3999c-6.08-45.5801-14.8999-90.9601-29.4199-134.66c-7.36,7.62-11.4401,17.67-14.77,27.5499
	c-6.63,20.79-9.58,42.52-12,64.14c-3.03,29.5601-4.34,59.26-5.54,88.9401c-1,22.04-1.4,44.1699-4.2899,66.08
	c-7.5601,69.0601-3.02,138.66-6.9,207.91c-0.0601,11.15-3.3301,21.9399-3.9,33.0599c-4.8201,58.6801,14.29,116.16,11.59,174.8
	c-0.84,9.91-0.76,20.46-5.86,29.35c-3.6899,6.73-10.28,11.36-17.35,14.02c-11.37,4.29-23.6,5.26-35.35,8.05
	c-10.5,2.4299-21.6801,6.2799-28.6001,14.99c-1.09,5.99,0.92,11.99,3.3701,17.4c7.0699,15.2599,18.25,28.1699,25.2999,43.4399
	c2.47,5.54,4.46,11.95,2.4501,17.95c-2.16,6.03-8.38,9.17-14.1101,11c-26.86,8-55.0199,11.1901-83,10.62
	C1235.79,1890.9,1193.17,1882.54,1150.01,1881.62c-13.04-0.4-26.15,0.5601-39.12-1.14c-5.7001-0.79-11.53-1.8099-16.61-4.61
	c-3.25-1.72-6.11-4.98-5.8401-8.85c0.5-5.74,4.4701-10.3201,8.1801-14.39c7.16-7.34,15.54-13.35,24.01-19.0699
	c13.85-9.17,28.36-17.3201,43.27-24.64c7.13-3.3401,14.22-7.0701,22.03-8.6001c13.5199-2.8999,27.4099-1.63,41.12-2.11
	c8.8099-0.4099,18.0699-1.5699,25.5199-6.6899c6.16-4.15,10.03-10.85,12.38-17.75c-10.59-3.21-22.2699-1.4501-32.4299-6.22
	c-6.3-2.8401-9.5-9.88-9.35-16.53c0.14-9.0601,1.6799-18.01,2.71-26.99c14.5599-110.27,31.77-220.1801,45.92-330.51
	c1.3899-12.8,3.48-25.59,3.5499-38.49c0-55.02-1.48-110.0601,0.88-165.0601c1.97-48.39,6.98-96.84,18.5-143.96
	c-15.5-3.79-31.0499-11.0701-40.6899-24.25c-10.13-13.65-12.48-31.19-12.7001-47.73c-0.13-25.73,3.8301-51.26,4.6-76.96
	c0.5901-23.35,0.1101-46.72,0.27-70.08c-0.01-33,0-66,0-99c0.0601-8.33-0.27-16.67,0.55-24.96c1.49-15.85,5.36-31.32,8.63-46.85
	c4.36-20.53,7.4399-42.42,0.67-62.79c-11.5801,16.59-21.13,34.5-30.2201,52.55c-35.5699,72.07-56.33,150.43-92.51,222.23
	c-9.96,20.02-20,40.07-32.2699,58.8c-8.01,12.05-16.78,23.89-28.1801,32.95c-7.29,5.7-16.4,10.25-25.9,9.08
	c-7.62-0.85-14.16-5.37-19.61-10.48c-9.9,15.02-22.28,28.39-36.34,39.6c-26.04,20.78-57.95,33.86-90.9,38.3199
	c-11.87,1.13-23.8-1.0599-35.18-4.33c-10.19-3.03-20.21-7.0699-28.94-13.22c-4.26-3.09-8.4-6.88-10.21-11.95
	c-1.46-4.01-0.31-8.56,2.37-11.77c4.25-5.33,10.61-8.24,16.44-11.49c18.76-10.02,38.44-18.42,56.24-30.18
	c-9.8-3.58-20.04-6.64-28.67-12.66c-2.25-1.52-4.99-4.79-2.57-7.34c3.82-3.6,9.32-4.49,14.23-5.77
	c24.1299-4.98,48.8799-5.89,73.09-10.36c5.21-1.16,10.75-2.04,15.27-5.06c3.06-1.89,1.15-5.73-0.42-7.94
	c-6.52-9.12-15.58-16-22.6-24.69c-2.33-3.07-5.09-6.62-4.33-10.72c1.21-5.42,6.01-8.93,10.47-11.69
	c13.19-7.8,28.23-11.52,42.2-17.59c5.21-2.15,9.1-6.36,13.44-9.8c27.46-23.04,54.82-47.22,74.27-77.69
	c12.36-19.19,20.73-40.59,28.11-62.09c12.79-37.24,21.8301-75.8199,37.76-111.93c9-20.88,18.4301-41.61,29.61-61.43
	c6.66-11.64,13.8301-23.12,22.91-33.05c5.79-6.45,13.24-11.04,20.55-15.57c16.7999-10.29,35.12-17.66,52.7799-26.27
	c12.13-6.08,24.49-13.12,32.54-24.38c6.65-9.08,9.35-20.44,9.64-31.55c0.24-12.27-1.91-24.46-4.79-36.35
	c-18.4299,6.16-39.6699,7.66-57.3099-1.72c-15.13-7.81-25.89-22.06-32.6801-37.37c-9.0699-20.5-12.2999-43.15-12.1699-65.43
	c-0.3101-4.68-0.3-9.97-3.41-13.79c-2.65-2.87-6.92-1.75-10.1901-0.9c-6.4299,1.82-13.61,4.15-20.0399,1.1
	c-3.29-1.66-7.03-4.24-7.25-8.29c-0.38-6.09,2.36-11.77,4.8099-17.18c4.79-10.26,11.4-19.6,15.9-29.99
	c4.3199-13.46,6.99-27.38,10.3199-41.1c2.41-9.59,5.12-19.47,11.1801-27.49c5.27-7.13,12.96-12.01,20.91-15.68
	c9.95-4.55,20.52-7.56,31.11-10.26c-6.6901-6.68-13.3101-13.51-18.77-21.25C1244.13,56.29,1241.27,51.99,1241.41,47.08z"/>
</svg>
